<svg width="39" height="27" viewBox="0 0 39 27" fill="none" xmlns="http://www.w3.org/2000/svg">
<path d="M10.7532 26.36C9.0252 26.36 7.5252 26.12 6.25319 25.64C4.98119 25.136 3.92519 24.452 3.08519 23.588C2.26919 22.724 1.64519 21.716 1.21319 20.564C0.781194 19.412 0.529194 18.176 0.457194 16.856C0.433194 16.208 0.409194 15.476 0.385194 14.66C0.385194 13.82 0.385194 12.98 0.385194 12.14C0.409194 11.276 0.433194 10.508 0.457194 9.836C0.529194 8.516 0.781194 7.292 1.21319 6.164C1.66919 5.012 2.31719 4.016 3.15719 3.176C4.02119 2.312 5.07719 1.64 6.32519 1.16C7.59719 0.679998 9.0732 0.439999 10.7532 0.439999C12.4572 0.439999 13.9332 0.679998 15.1812 1.16C16.4292 1.64 17.4732 2.312 18.3132 3.176C19.1772 4.016 19.8372 5.012 20.2932 6.164C20.7492 7.292 21.0012 8.516 21.0492 9.836C21.0972 10.508 21.1212 11.276 21.1212 12.14C21.1452 12.98 21.1452 13.82 21.1212 14.66C21.1212 15.476 21.0972 16.208 21.0492 16.856C21.0012 18.176 20.7492 19.412 20.2932 20.564C19.8612 21.716 19.2252 22.724 18.3852 23.588C17.5692 24.452 16.5252 25.136 15.2532 25.64C14.0052 26.12 12.5052 26.36 10.7532 26.36ZM10.7532 21.14C12.0012 21.14 12.9012 20.744 13.4532 19.952C14.0292 19.136 14.3292 18.044 14.3532 16.676C14.4012 15.98 14.4252 15.248 14.4252 14.48C14.4492 13.712 14.4492 12.944 14.4252 12.176C14.4252 11.408 14.4012 10.7 14.3532 10.052C14.3292 8.732 14.0292 7.664 13.4532 6.848C12.9012 6.032 12.0012 5.612 10.7532 5.588C9.50519 5.612 8.60519 6.032 8.05319 6.848C7.50119 7.664 7.20119 8.732 7.15319 10.052C7.12919 10.7 7.10519 11.408 7.08119 12.176C7.08119 12.944 7.08119 13.712 7.08119 14.48C7.10519 15.248 7.12919 15.98 7.15319 16.676C7.20119 18.044 7.51319 19.136 8.08919 19.952C8.66519 20.744 9.55319 21.14 10.7532 21.14ZM32.9899 26C32.7499 26 32.5339 25.916 32.3419 25.748C32.1739 25.58 32.0899 25.364 32.0899 25.1V7.964L27.1579 11.744C26.9419 11.912 26.7139 11.972 26.4739 11.924C26.2579 11.876 26.0659 11.744 25.8979 11.528L23.7739 8.756C23.6299 8.54 23.5699 8.312 23.5939 8.072C23.6419 7.808 23.7859 7.604 24.0259 7.46L32.3059 1.052C32.4499 0.955999 32.5819 0.895999 32.7019 0.872C32.8459 0.823999 33.0019 0.799998 33.1699 0.799998H37.6699C37.9099 0.799998 38.1139 0.883999 38.2819 1.052C38.4739 1.22 38.5699 1.436 38.5699 1.7V25.1C38.5699 25.364 38.4739 25.58 38.2819 25.748C38.1139 25.916 37.9099 26 37.6699 26H32.9899Z" fill="black" fill-opacity="0.07"/>
</svg>
