<svg width="45" height="27" viewBox="0 0 45 27" fill="none" xmlns="http://www.w3.org/2000/svg">
<path d="M10.7532 26.36C9.0252 26.36 7.5252 26.12 6.25319 25.64C4.98119 25.136 3.92519 24.452 3.08519 23.588C2.26919 22.724 1.64519 21.716 1.21319 20.564C0.781194 19.412 0.529194 18.176 0.457194 16.856C0.433194 16.208 0.409194 15.476 0.385194 14.66C0.385194 13.82 0.385194 12.98 0.385194 12.14C0.409194 11.276 0.433194 10.508 0.457194 9.836C0.529194 8.516 0.781194 7.292 1.21319 6.164C1.66919 5.012 2.31719 4.016 3.15719 3.176C4.02119 2.312 5.07719 1.64 6.32519 1.16C7.59719 0.679998 9.0732 0.439999 10.7532 0.439999C12.4572 0.439999 13.9332 0.679998 15.1812 1.16C16.4292 1.64 17.4732 2.312 18.3132 3.176C19.1772 4.016 19.8372 5.012 20.2932 6.164C20.7492 7.292 21.0012 8.516 21.0492 9.836C21.0972 10.508 21.1212 11.276 21.1212 12.14C21.1452 12.98 21.1452 13.82 21.1212 14.66C21.1212 15.476 21.0972 16.208 21.0492 16.856C21.0012 18.176 20.7492 19.412 20.2932 20.564C19.8612 21.716 19.2252 22.724 18.3852 23.588C17.5692 24.452 16.5252 25.136 15.2532 25.64C14.0052 26.12 12.5052 26.36 10.7532 26.36ZM10.7532 21.14C12.0012 21.14 12.9012 20.744 13.4532 19.952C14.0292 19.136 14.3292 18.044 14.3532 16.676C14.4012 15.98 14.4252 15.248 14.4252 14.48C14.4492 13.712 14.4492 12.944 14.4252 12.176C14.4252 11.408 14.4012 10.7 14.3532 10.052C14.3292 8.732 14.0292 7.664 13.4532 6.848C12.9012 6.032 12.0012 5.612 10.7532 5.588C9.50519 5.612 8.60519 6.032 8.05319 6.848C7.50119 7.664 7.20119 8.732 7.15319 10.052C7.12919 10.7 7.10519 11.408 7.08119 12.176C7.08119 12.944 7.08119 13.712 7.08119 14.48C7.10519 15.248 7.12919 15.98 7.15319 16.676C7.20119 18.044 7.51319 19.136 8.08919 19.952C8.66519 20.744 9.55319 21.14 10.7532 21.14ZM25.4299 26C25.1659 26 24.9379 25.916 24.7459 25.748C24.5779 25.58 24.4939 25.364 24.4939 25.1V22.544C24.4939 22.376 24.5419 22.124 24.6379 21.788C24.7339 21.428 24.9859 21.092 25.3939 20.78L29.1379 17.108C31.0579 15.644 32.6299 14.408 33.8539 13.4C35.1019 12.368 36.0259 11.456 36.6259 10.664C37.2259 9.872 37.5259 9.128 37.5259 8.432C37.5259 7.616 37.3099 6.944 36.8779 6.416C36.4699 5.864 35.7499 5.588 34.7179 5.588C34.0219 5.588 33.4339 5.744 32.9539 6.056C32.4979 6.344 32.1499 6.728 31.9099 7.208C31.6699 7.688 31.5019 8.18 31.4059 8.684C31.3099 8.996 31.1419 9.212 30.9019 9.332C30.6859 9.452 30.4459 9.512 30.1819 9.512H25.6819C25.4659 9.512 25.2859 9.44 25.1419 9.296C24.9979 9.152 24.9259 8.972 24.9259 8.756C24.9499 7.604 25.1899 6.524 25.6459 5.516C26.1259 4.508 26.7859 3.62 27.6259 2.852C28.4899 2.06 29.5099 1.448 30.6859 1.016C31.8859 0.584 33.2299 0.368 34.7179 0.368C36.7579 0.368 38.4859 0.691999 39.9019 1.34C41.3419 1.988 42.4339 2.9 43.1779 4.076C43.9219 5.228 44.2939 6.584 44.2939 8.144C44.2939 9.32 44.0299 10.424 43.5019 11.456C42.9979 12.464 42.2659 13.436 41.3059 14.372C40.3699 15.284 39.2539 16.232 37.9579 17.216L34.6459 20.564H43.8979C44.1619 20.564 44.3779 20.648 44.5459 20.816C44.7379 20.984 44.8339 21.2 44.8339 21.464V25.1C44.8339 25.364 44.7379 25.58 44.5459 25.748C44.3779 25.916 44.1619 26 43.8979 26H25.4299Z" fill="black" fill-opacity="0.07"/>
</svg>
