<svg width="46" height="27" viewBox="0 0 46 27" fill="none" xmlns="http://www.w3.org/2000/svg">
<path d="M10.7532 26.3601C9.0252 26.3601 7.5252 26.1201 6.25319 25.6401C4.98119 25.1361 3.92519 24.4521 3.08519 23.5881C2.26919 22.7241 1.64519 21.7161 1.21319 20.5641C0.781194 19.4121 0.529194 18.1761 0.457194 16.8561C0.433194 16.2081 0.409194 15.4761 0.385194 14.6601C0.385194 13.8201 0.385194 12.9801 0.385194 12.1401C0.409194 11.2761 0.433194 10.5081 0.457194 9.83612C0.529194 8.51612 0.781194 7.29212 1.21319 6.16412C1.66919 5.01212 2.31719 4.01612 3.15719 3.17612C4.02119 2.31212 5.07719 1.64012 6.32519 1.16012C7.59719 0.68012 9.0732 0.440121 10.7532 0.440121C12.4572 0.440121 13.9332 0.68012 15.1812 1.16012C16.4292 1.64012 17.4732 2.31212 18.3132 3.17612C19.1772 4.01612 19.8372 5.01212 20.2932 6.16412C20.7492 7.29212 21.0012 8.51612 21.0492 9.83612C21.0972 10.5081 21.1212 11.2761 21.1212 12.1401C21.1452 12.9801 21.1452 13.8201 21.1212 14.6601C21.1212 15.4761 21.0972 16.2081 21.0492 16.8561C21.0012 18.1761 20.7492 19.4121 20.2932 20.5641C19.8612 21.7161 19.2252 22.7241 18.3852 23.5881C17.5692 24.4521 16.5252 25.1361 15.2532 25.6401C14.0052 26.1201 12.5052 26.3601 10.7532 26.3601ZM10.7532 21.1401C12.0012 21.1401 12.9012 20.7441 13.4532 19.9521C14.0292 19.1361 14.3292 18.0441 14.3532 16.6761C14.4012 15.9801 14.4252 15.2481 14.4252 14.4801C14.4492 13.7121 14.4492 12.9441 14.4252 12.1761C14.4252 11.4081 14.4012 10.7001 14.3532 10.0521C14.3292 8.73212 14.0292 7.66412 13.4532 6.84812C12.9012 6.03212 12.0012 5.61212 10.7532 5.58812C9.50519 5.61212 8.60519 6.03212 8.05319 6.84812C7.50119 7.66412 7.20119 8.73212 7.15319 10.0521C7.12919 10.7001 7.10519 11.4081 7.08119 12.1761C7.08119 12.9441 7.08119 13.7121 7.08119 14.4801C7.10519 15.2481 7.12919 15.9801 7.15319 16.6761C7.20119 18.0441 7.51319 19.1361 8.08919 19.9521C8.66519 20.7441 9.55319 21.1401 10.7532 21.1401ZM34.7179 26.3601C32.8459 26.3601 31.2499 26.1441 29.9299 25.7121C28.6099 25.2561 27.5299 24.6801 26.6899 23.9841C25.8499 23.2641 25.2259 22.5081 24.8179 21.7161C24.4099 20.9001 24.1939 20.1201 24.1699 19.3761C24.1699 19.1601 24.2419 18.9801 24.3859 18.8361C24.5539 18.6921 24.7459 18.6201 24.9619 18.6201H29.6419C29.9299 18.6201 30.1579 18.6801 30.3259 18.8001C30.4939 18.8961 30.6499 19.0641 30.7939 19.3041C30.9859 19.7601 31.2619 20.1321 31.6219 20.4201C32.0059 20.7081 32.4619 20.9121 32.9899 21.0321C33.5179 21.1281 34.0939 21.1761 34.7179 21.1761C35.9419 21.1761 36.8899 20.9001 37.5619 20.3481C38.2579 19.7721 38.6059 18.9921 38.6059 18.0081C38.6059 16.9761 38.2819 16.2441 37.6339 15.8121C36.9859 15.3561 36.0619 15.1281 34.8619 15.1281H30.8659C30.6019 15.1281 30.3859 15.0441 30.2179 14.8761C30.0499 14.7081 29.9659 14.4921 29.9659 14.2281V12.2121C29.9659 11.9241 30.0259 11.6721 30.1459 11.4561C30.2659 11.2401 30.3979 11.0841 30.5419 10.9881L36.4459 5.98412H26.4379C26.1979 5.98412 25.9819 5.90012 25.7899 5.73212C25.6219 5.56412 25.5379 5.34812 25.5379 5.08412V1.70012C25.5379 1.43612 25.6219 1.22012 25.7899 1.05212C25.9819 0.884121 26.1979 0.80012 26.4379 0.80012H42.9979C43.2619 0.80012 43.4779 0.884121 43.6459 1.05212C43.8379 1.22012 43.9339 1.43612 43.9339 1.70012V4.76012C43.9339 5.02412 43.8739 5.26412 43.7539 5.48012C43.6339 5.67212 43.5019 5.82812 43.3579 5.94812L37.8859 11.0241L38.1379 11.0961C39.5059 11.2641 40.7299 11.6361 41.8099 12.2121C42.8899 12.7641 43.7419 13.5441 44.3659 14.5521C44.9899 15.5601 45.3019 16.8441 45.3019 18.4041C45.3019 20.0361 44.8339 21.4521 43.8979 22.6521C42.9859 23.8281 41.7379 24.7401 40.1539 25.3881C38.5699 26.0361 36.7579 26.3601 34.7179 26.3601Z" fill="black" fill-opacity="0.07"/>
</svg>
