<svg width="47" height="27" viewBox="0 0 47 27" fill="none" xmlns="http://www.w3.org/2000/svg">
<path d="M10.7532 26.3601C9.0252 26.3601 7.5252 26.1201 6.25319 25.6401C4.98119 25.1361 3.92519 24.4521 3.08519 23.5881C2.26919 22.7241 1.64519 21.7161 1.21319 20.5641C0.781194 19.4121 0.529194 18.1761 0.457194 16.8561C0.433194 16.2081 0.409194 15.4761 0.385194 14.6601C0.385194 13.8201 0.385194 12.9801 0.385194 12.1401C0.409194 11.2761 0.433194 10.5081 0.457194 9.83612C0.529194 8.51612 0.781194 7.29212 1.21319 6.16412C1.66919 5.01212 2.31719 4.01612 3.15719 3.17612C4.02119 2.31212 5.07719 1.64012 6.32519 1.16012C7.59719 0.68012 9.0732 0.440121 10.7532 0.440121C12.4572 0.440121 13.9332 0.68012 15.1812 1.16012C16.4292 1.64012 17.4732 2.31212 18.3132 3.17612C19.1772 4.01612 19.8372 5.01212 20.2932 6.16412C20.7492 7.29212 21.0012 8.51612 21.0492 9.83612C21.0972 10.5081 21.1212 11.2761 21.1212 12.1401C21.1452 12.9801 21.1452 13.8201 21.1212 14.6601C21.1212 15.4761 21.0972 16.2081 21.0492 16.8561C21.0012 18.1761 20.7492 19.4121 20.2932 20.5641C19.8612 21.7161 19.2252 22.7241 18.3852 23.5881C17.5692 24.4521 16.5252 25.1361 15.2532 25.6401C14.0052 26.1201 12.5052 26.3601 10.7532 26.3601ZM10.7532 21.1401C12.0012 21.1401 12.9012 20.7441 13.4532 19.9521C14.0292 19.1361 14.3292 18.0441 14.3532 16.6761C14.4012 15.9801 14.4252 15.2481 14.4252 14.4801C14.4492 13.7121 14.4492 12.9441 14.4252 12.1761C14.4252 11.4081 14.4012 10.7001 14.3532 10.0521C14.3292 8.73212 14.0292 7.66412 13.4532 6.84812C12.9012 6.03212 12.0012 5.61212 10.7532 5.58812C9.50519 5.61212 8.60519 6.03212 8.05319 6.84812C7.50119 7.66412 7.20119 8.73212 7.15319 10.0521C7.12919 10.7001 7.10519 11.4081 7.08119 12.1761C7.08119 12.9441 7.08119 13.7121 7.08119 14.4801C7.10519 15.2481 7.12919 15.9801 7.15319 16.6761C7.20119 18.0441 7.51319 19.1361 8.08919 19.9521C8.66519 20.7441 9.55319 21.1401 10.7532 21.1401ZM37.0219 26.0001C36.7819 26.0001 36.5659 25.9161 36.3739 25.7481C36.2059 25.5801 36.1219 25.3641 36.1219 25.1001V21.0321H24.9259C24.6859 21.0321 24.4699 20.9481 24.2779 20.7801C24.1099 20.6121 24.0259 20.3961 24.0259 20.1321V16.7121C24.0259 16.4961 24.0619 16.3041 24.1339 16.1361C24.2299 15.9441 24.3259 15.7641 24.4219 15.5961L34.8979 1.41212C35.2099 1.00412 35.6539 0.80012 36.2299 0.80012H41.4499C41.7139 0.80012 41.9299 0.884121 42.0979 1.05212C42.2899 1.22012 42.3859 1.43612 42.3859 1.70012V15.6681H45.5539C45.8419 15.6681 46.0699 15.7641 46.2379 15.9561C46.4059 16.1241 46.4899 16.3281 46.4899 16.5681V20.1321C46.4899 20.3961 46.3939 20.6121 46.2019 20.7801C46.0339 20.9481 45.8299 21.0321 45.5899 21.0321H42.3859V25.1001C42.3859 25.3641 42.2899 25.5801 42.0979 25.7481C41.9299 25.9161 41.7139 26.0001 41.4499 26.0001H37.0219ZM30.2179 15.9201H36.2659V7.42412L30.2179 15.9201Z" fill="black" fill-opacity="0.07"/>
</svg>
