<svg width="467" height="190" viewBox="0 0 467 190" fill="none" xmlns="http://www.w3.org/2000/svg">
<path d="M42.6381 35.9343V69.0714H109.179V101.993H42.6381V153.635H0V3.01246H118.224V35.9343H42.6381Z" fill="#08A0F8" fill-opacity="0.03"/>
<path d="M233.273 124.371H169.531L157.687 153.635H114.188L180.729 3.01246H222.721L289.478 153.635H245.117L233.273 124.371ZM220.783 92.9558L201.402 44.7565L182.021 92.9558H220.783Z" fill="#08A0F8" fill-opacity="0.03"/>
<path d="M467 171.065C461.975 177.233 455.802 181.895 448.48 185.051C441.302 188.35 433.406 190 424.793 190C416.466 190 408.929 188.924 402.182 186.772C395.434 184.621 388.615 181.034 381.724 176.014C374.976 171.136 367.368 164.251 358.897 155.357C345.833 153.205 334.205 148.543 324.012 141.37C313.819 134.198 305.851 125.16 300.109 114.258C294.51 103.356 291.71 91.3779 291.71 78.3239C291.71 63.4051 295.299 49.9925 302.477 38.0861C309.799 26.1797 319.777 16.8554 332.41 10.1132C345.187 3.37108 359.543 0 375.479 0C391.414 0 405.699 3.37108 418.332 10.1132C431.109 16.8554 441.087 26.1797 448.265 38.0861C455.587 49.9925 459.248 63.4051 459.248 78.3239C459.248 95.251 454.582 110.242 445.25 123.296C436.062 136.206 423.644 145.459 407.996 151.053C410.867 154.209 413.666 156.433 416.394 157.724C419.265 159.015 422.352 159.66 425.654 159.66C434.124 159.66 441.733 156.146 448.48 149.117L467 171.065ZM334.779 78.3239C334.779 86.7875 336.573 94.3186 340.162 100.917C343.751 107.373 348.633 112.393 354.806 115.98C360.979 119.566 367.87 121.359 375.479 121.359C383.088 121.359 389.979 119.566 396.152 115.98C402.325 112.393 407.206 107.373 410.795 100.917C414.384 94.3186 416.179 86.7875 416.179 78.3239C416.179 69.8603 414.384 62.4009 410.795 55.9456C407.206 49.3469 402.325 44.2544 396.152 40.6682C389.979 37.0819 383.088 35.2888 375.479 35.2888C367.87 35.2888 360.979 37.0819 354.806 40.6682C348.633 44.2544 343.751 49.3469 340.162 55.9456C336.573 62.4009 334.779 69.8603 334.779 78.3239Z" fill="#08A0F8" fill-opacity="0.03"/>
</svg>
