<svg width="61" height="53" viewBox="0 0 61 53" fill="none" xmlns="http://www.w3.org/2000/svg">
<path d="M21.4769 4.69427C24.0694 2.10169 28.2728 2.1017 30.8654 4.69427L47.648 21.4769C50.2406 24.0694 50.2406 28.2728 47.648 30.8654L30.8654 47.648C28.2728 50.2406 24.0694 50.2406 21.4769 47.648L4.69427 30.8654C2.10169 28.2728 2.1017 24.0694 4.69427 21.4769L21.4769 4.69427Z" fill="#26292C"/>
<path d="M29.6805 4.69427C32.2731 2.10169 36.4765 2.1017 39.0691 4.69427L55.8517 21.4769C58.4442 24.0694 58.4442 28.2728 55.8517 30.8654L39.0691 47.648C36.4765 50.2406 32.2731 50.2406 29.6805 47.648L12.8979 30.8654C10.3054 28.2728 10.3054 24.0694 12.8979 21.4769L29.6805 4.69427Z" fill="#08A0F8"/>
<path d="M26.8617 33.1637C25.9092 33.1637 25.0481 33.0006 24.2783 32.6744C23.5215 32.3483 22.9213 31.8785 22.4777 31.2653C22.0341 30.6521 21.8058 29.9279 21.7927 29.0929H24.7284C24.7676 29.6539 24.9633 30.0975 25.3156 30.4237C25.6809 30.7499 26.1767 30.913 26.803 30.913C27.4423 30.913 27.9447 30.763 28.31 30.4629C28.6753 30.1497 28.858 29.7453 28.858 29.2495C28.858 28.845 28.734 28.5123 28.4861 28.2513C28.2382 27.9904 27.9251 27.7881 27.5467 27.6446C27.1814 27.488 26.6725 27.3184 26.0201 27.1357C25.1329 26.8748 24.4088 26.6204 23.8477 26.3725C23.2997 26.1115 22.8235 25.7266 22.419 25.2178C22.0276 24.6958 21.8319 24.0043 21.8319 23.1432C21.8319 22.3342 22.0341 21.6297 22.4386 21.0295C22.8431 20.4293 23.4106 19.9726 24.1413 19.6595C24.872 19.3333 25.707 19.1702 26.6464 19.1702C28.0556 19.1702 29.1972 19.516 30.0714 20.2075C30.9587 20.886 31.4479 21.8384 31.5393 23.0649H28.5253C28.4992 22.5952 28.2969 22.2103 27.9186 21.9102C27.5532 21.597 27.0639 21.4405 26.4507 21.4405C25.9158 21.4405 25.4852 21.5775 25.159 21.8515C24.8459 22.1255 24.6893 22.5234 24.6893 23.0453C24.6893 23.4107 24.8067 23.7173 25.0416 23.9652C25.2895 24.2 25.5896 24.3958 25.9419 24.5523C26.3072 24.6958 26.816 24.8655 27.4684 25.0612C28.3557 25.3221 29.0798 25.5831 29.6408 25.844C30.2019 26.105 30.6847 26.4964 31.0891 27.0183C31.4936 27.5402 31.6958 28.2252 31.6958 29.0733C31.6958 29.804 31.5066 30.4824 31.1283 31.1087C30.7499 31.735 30.1954 32.2373 29.4647 32.6157C28.734 32.9811 27.8664 33.1637 26.8617 33.1637Z" fill="white"/>
<path d="M40.4124 33.1637C39.1338 33.1637 37.9595 32.8636 36.8896 32.2634C35.8197 31.6633 34.9716 30.8347 34.3453 29.7779C33.719 28.708 33.4059 27.5011 33.4059 26.1572C33.4059 24.8263 33.719 23.6325 34.3453 22.5756C34.9716 21.5057 35.8197 20.6707 36.8896 20.0705C37.9595 19.4703 39.1338 19.1702 40.4124 19.1702C41.7041 19.1702 42.8784 19.4703 43.9353 20.0705C45.0052 20.6707 45.8468 21.5057 46.46 22.5756C47.0863 23.6325 47.3994 24.8263 47.3994 26.1572C47.3994 27.5011 47.0863 28.708 46.46 29.7779C45.8468 30.8347 45.0052 31.6633 43.9353 32.2634C42.8654 32.8636 41.6911 33.1637 40.4124 33.1637ZM40.4124 30.7173C41.2344 30.7173 41.9586 30.5346 42.5849 30.1693C43.2111 29.7909 43.7004 29.256 44.0527 28.5645C44.405 27.8729 44.5811 27.0705 44.5811 26.1572C44.5811 25.2438 44.405 24.4479 44.0527 23.7695C43.7004 23.0779 43.2111 22.5495 42.5849 22.1842C41.9586 21.8189 41.2344 21.6362 40.4124 21.6362C39.5904 21.6362 38.8598 21.8189 38.2204 22.1842C37.5942 22.5495 37.1049 23.0779 36.7526 23.7695C36.4003 24.4479 36.2242 25.2438 36.2242 26.1572C36.2242 27.0705 36.4003 27.8729 36.7526 28.5645C37.1049 29.256 37.5942 29.7909 38.2204 30.1693C38.8598 30.5346 39.5904 30.7173 40.4124 30.7173Z" fill="white"/>
</svg>
