<svg width="33" height="32" viewBox="0 0 33 32" fill="none" xmlns="http://www.w3.org/2000/svg">
<g clip-path="url(#clip0_13_149)">
<path d="M19.5492 18C19.3578 18.0005 19.1684 18.0378 18.9912 18.11C18.94 17.9097 18.8473 17.7223 18.7191 17.5601C18.5909 17.3979 18.43 17.2645 18.2469 17.1685C18.0638 17.0724 17.8626 17.016 17.6562 17.0027C17.4499 16.9894 17.2431 17.0197 17.0492 17.0915V14C17.0492 13.6022 16.8911 13.2206 16.6098 12.9393C16.3285 12.658 15.947 12.5 15.5492 12.5C15.1514 12.5 14.7698 12.658 14.4885 12.9393C14.2072 13.2206 14.0492 13.6022 14.0492 14V22.179L13.8287 21.929C13.8101 21.9082 13.7899 21.889 13.7682 21.8715C13.4101 21.5915 12.9616 21.4531 12.508 21.4827C12.0545 21.5123 11.6277 21.7078 11.3091 22.032C10.9905 22.3562 10.8024 22.7863 10.7806 23.2403C10.7589 23.6943 10.905 24.1404 11.1912 24.4935L13.6077 28.1C13.6259 28.127 13.6467 28.1523 13.6697 28.1755C13.9862 28.4925 14.3475 28.7612 14.7422 28.973V31.5H15.7422V28.659C15.7422 28.5612 15.7136 28.4656 15.6598 28.3839C15.606 28.3022 15.5295 28.2381 15.4397 28.1995C15.0571 28.0307 14.7084 27.7937 14.4107 27.5L12.0072 23.9135C11.9962 23.896 11.984 23.8793 11.9707 23.8635C11.8393 23.7091 11.7669 23.5132 11.7662 23.3105C11.7653 23.1539 11.8079 23.0002 11.8892 22.8665C11.9706 22.7327 12.0875 22.6242 12.2269 22.553C12.3663 22.4818 12.5228 22.4507 12.6789 22.4633C12.8349 22.4758 12.9844 22.5315 13.1107 22.624L14.1752 23.8285C14.2423 23.9042 14.3308 23.9577 14.429 23.982C14.5272 24.0063 14.6304 24.0003 14.7251 23.9647C14.8198 23.9291 14.9014 23.8656 14.9593 23.7827C15.0172 23.6997 15.0485 23.6011 15.0492 23.5V14C15.0492 13.8674 15.1019 13.7402 15.1956 13.6464C15.2894 13.5527 15.4166 13.5 15.5492 13.5C15.6818 13.5 15.809 13.5527 15.9027 13.6464C15.9965 13.7402 16.0492 13.8674 16.0492 14V21.5H17.0492V18.5C17.0492 18.3674 17.1019 18.2402 17.1956 18.1464C17.2894 18.0527 17.4166 18 17.5492 18C17.6818 18 17.809 18.0527 17.9027 18.1464C17.9965 18.2402 18.0492 18.3674 18.0492 18.5V21.5H19.0492V19.5C19.0492 19.3674 19.1019 19.2402 19.1956 19.1464C19.2894 19.0527 19.4166 19 19.5492 19C19.6818 19 19.809 19.0527 19.9027 19.1464C19.9965 19.2402 20.0492 19.3674 20.0492 19.5V21.5H21.0492V20.5C21.0492 20.3674 21.1019 20.2402 21.1956 20.1464C21.2894 20.0527 21.4166 20 21.5492 20C21.6818 20 21.809 20.0527 21.9027 20.1464C21.9965 20.2402 22.0492 20.3674 22.0492 20.5L22.0402 24.7305C22.0571 25.3644 21.9048 25.9913 21.5989 26.5468C21.2931 27.1023 20.8448 27.5663 20.3002 27.891C20.2241 27.9349 20.1609 27.9981 20.1171 28.0742C20.0732 28.1503 20.0501 28.2366 20.0502 28.3245V31.5H21.0502V28.6C21.677 28.1705 22.1871 27.5918 22.5346 26.916C22.882 26.2403 23.056 25.4887 23.0407 24.729L23.0492 20.5C23.0503 20.2545 22.991 20.0125 22.8764 19.7954C22.7618 19.5783 22.5954 19.3928 22.3921 19.2552C22.1887 19.1177 21.9547 19.0323 21.7105 19.0067C21.4663 18.9811 21.2196 19.0161 20.9922 19.1085C20.9064 18.7911 20.7187 18.5107 20.458 18.3105C20.1972 18.1102 19.8779 18.0011 19.5492 18Z" fill="white"/>
<path d="M17.6117 12.395C17.7354 12.1128 17.7993 11.8081 17.7992 11.5C17.8 11.1653 17.7261 10.8346 17.5829 10.532C17.4397 10.2295 17.2308 9.96271 16.9714 9.75113C16.7121 9.53955 16.4087 9.38851 16.0836 9.30901C15.7585 9.22951 15.4197 9.22356 15.0919 9.29158C14.7642 9.35961 14.4558 9.4999 14.1891 9.70223C13.9225 9.90456 13.7043 10.1638 13.5506 10.4612C13.3968 10.7585 13.3114 11.0864 13.3004 11.4209C13.2894 11.7554 13.3532 12.0882 13.4872 12.395C13.7125 12.106 13.996 11.8675 14.3192 11.695C14.3072 11.6306 14.3005 11.5654 14.2992 11.5C14.296 11.3256 14.3292 11.1525 14.3969 10.9918C14.4645 10.8311 14.5651 10.6863 14.692 10.5667C14.819 10.4472 14.9696 10.3555 15.1341 10.2976C15.2986 10.2397 15.4733 10.2169 15.6472 10.2306C15.821 10.2443 15.9901 10.2942 16.1435 10.3772C16.2969 10.4601 16.4312 10.5742 16.5379 10.7122C16.6446 10.8502 16.7212 11.0089 16.7628 11.1783C16.8045 11.3476 16.8102 11.5238 16.7797 11.6955C17.1028 11.868 17.3862 12.1063 17.6117 12.395Z" fill="white"/>
<path d="M12.6942 8.05401C12.4772 7.93525 12.223 7.90406 11.9838 7.96682C11.7446 8.02958 11.5384 8.18154 11.4077 8.39151L10.6822 9.59151C10.6181 9.69701 10.5762 9.81447 10.559 9.93671C10.5418 10.059 10.5497 10.1834 10.5822 10.3025C10.6146 10.4241 10.6715 10.5379 10.7494 10.6367C10.8273 10.7356 10.9245 10.8175 11.0352 10.8775L11.2577 11.0005C11.2149 11.3325 11.2149 11.6686 11.2577 12.0005L11.0352 12.1235C10.9245 12.1835 10.8273 12.2654 10.7494 12.3643C10.6715 12.4632 10.6146 12.5769 10.5822 12.6985C10.5496 12.8177 10.5416 12.9422 10.5588 13.0646C10.576 13.1869 10.618 13.3045 10.6822 13.41L11.4067 14.61C11.5374 14.8202 11.7435 14.9723 11.9829 15.0352C12.2223 15.0981 12.4766 15.0669 12.6937 14.948L12.9242 14.817V14C12.9242 13.936 12.9387 13.8765 12.9432 13.8135C12.7804 13.8096 12.6194 13.8479 12.4757 13.9245L12.2402 14.054L11.5807 12.962L11.7782 12.853C11.9424 12.7645 12.0759 12.6281 12.161 12.4621C12.2461 12.296 12.2788 12.108 12.2547 11.923C12.2346 11.7829 12.2246 11.6415 12.2247 11.5C12.2247 11.3583 12.2351 11.2167 12.2557 11.0765C12.2794 10.8916 12.2466 10.7038 12.1616 10.5379C12.0765 10.372 11.9432 10.2357 11.7792 10.147L11.5792 10.038L12.2387 8.94601L12.4742 9.07551C12.6384 9.16363 12.8243 9.20328 13.0102 9.18982C13.1961 9.17637 13.3744 9.11037 13.5242 8.99951C13.7514 8.83283 13.9987 8.69541 14.2602 8.59051C14.4374 8.52375 14.5904 8.40511 14.6991 8.25008C14.8078 8.09506 14.8673 7.91085 14.8697 7.72151V7.50001H16.2232V7.72151C16.2255 7.91073 16.2849 8.09485 16.3934 8.24987C16.502 8.40488 16.6547 8.52359 16.8317 8.59051C17.0946 8.69537 17.3432 8.83296 17.5717 9.00001C17.7214 9.11111 17.8997 9.17731 18.0856 9.19085C18.2715 9.2044 18.4575 9.16474 18.6217 9.07651L18.8567 8.94701L19.5167 10.039L19.3167 10.148C19.1526 10.2367 19.0191 10.373 18.9341 10.539C18.849 10.7051 18.8163 10.893 18.8402 11.078C18.8605 11.2181 18.8706 11.3595 18.8707 11.501C18.8707 11.6427 18.8603 11.7843 18.8397 11.9245C18.8161 12.1094 18.849 12.2972 18.934 12.463C19.0191 12.6289 19.1523 12.7652 19.3162 12.854L19.5162 12.963L18.8562 14.055L18.6212 13.9255C18.4774 13.8488 18.3162 13.8106 18.1532 13.8145C18.1577 13.8775 18.1722 13.937 18.1722 14.001V14.82L18.4027 14.947C18.6197 15.0658 18.8739 15.097 19.1131 15.0342C19.3523 14.9714 19.5585 14.8195 19.6892 14.6095L20.4147 13.4095C20.4787 13.304 20.5206 13.1865 20.5378 13.0643C20.5549 12.9421 20.5471 12.8176 20.5147 12.6985C20.4821 12.5769 20.4251 12.4632 20.3471 12.3644C20.2691 12.2655 20.1719 12.1836 20.0612 12.1235L19.8427 12C19.8855 11.6681 19.8855 11.332 19.8427 11L20.0652 10.877C20.1759 10.817 20.2731 10.735 20.3511 10.6362C20.4291 10.5373 20.4861 10.4236 20.5187 10.302C20.5512 10.1828 20.5591 10.0583 20.5419 9.93597C20.5247 9.81365 20.4828 9.69611 20.4187 9.59051L19.6942 8.39051C19.5637 8.18014 19.3575 8.02782 19.1181 7.96494C18.8787 7.90206 18.6242 7.9334 18.4072 8.05251L18.1647 8.19051C17.8751 7.97891 17.5608 7.80344 17.2287 7.66801V7.43051C17.2253 7.18062 17.1229 6.94229 16.9439 6.76784C16.765 6.59339 16.5241 6.49707 16.2742 6.5H14.8242C14.5748 6.49814 14.3348 6.59516 14.1567 6.76983C13.9787 6.9445 13.8771 7.1826 13.8742 7.43201V7.67001C13.5444 7.8 13.236 7.97865 12.9592 8.20001L12.6942 8.05401Z" fill="white"/>
<path d="M29.5492 0.5C29.0547 0.5 28.5714 0.646622 28.1603 0.921326C27.7491 1.19603 27.4287 1.58648 27.2395 2.04329C27.0503 2.50011 27.0008 3.00277 27.0972 3.48773C27.1937 3.97268 27.4318 4.41814 27.7814 4.76777C28.1311 5.1174 28.5765 5.3555 29.0615 5.45196C29.5464 5.54843 30.0491 5.49892 30.5059 5.3097C30.9627 5.12048 31.3532 4.80005 31.6279 4.38893C31.9026 3.9778 32.0492 3.49445 32.0492 3C32.0484 2.3372 31.7847 1.70178 31.3161 1.23311C30.8474 0.764441 30.212 0.500794 29.5492 0.5ZM29.5492 4.5C29.2525 4.5 28.9625 4.41203 28.7158 4.2472C28.4692 4.08238 28.2769 3.84811 28.1634 3.57403C28.0498 3.29994 28.0201 2.99834 28.078 2.70736C28.1359 2.41639 28.2788 2.14912 28.4885 1.93934C28.6983 1.72956 28.9656 1.5867 29.2566 1.52882C29.5475 1.47094 29.8491 1.50065 30.1232 1.61418C30.3973 1.72771 30.6316 1.91997 30.7964 2.16664C30.9612 2.41332 31.0492 2.70333 31.0492 3C31.0492 3.39782 30.8911 3.77936 30.6098 4.06066C30.3285 4.34196 29.947 4.5 29.5492 4.5Z" fill="white"/>
<path d="M3.54919 21C4.04365 21 4.527 20.8534 4.93812 20.5787C5.34924 20.304 5.66967 19.9135 5.85889 19.4567C6.04811 18.9999 6.09762 18.4972 6.00116 18.0123C5.90469 17.5273 5.66659 17.0819 5.31696 16.7322C4.96733 16.3826 4.52187 16.1445 4.03692 16.048C3.55197 15.9516 3.0493 16.0011 2.59249 16.1903C2.13567 16.3795 1.74522 16.7 1.47052 17.1111C1.19582 17.5222 1.04919 18.0055 1.04919 18.5C1.04999 19.1628 1.31364 19.7982 1.7823 20.2669C2.25097 20.7356 2.8864 20.9992 3.54919 21ZM3.54919 17C3.84587 17 4.13588 17.088 4.38255 17.2528C4.62922 17.4176 4.82148 17.6519 4.93501 17.926C5.04855 18.2001 5.07825 18.5017 5.02037 18.7926C4.96249 19.0836 4.81963 19.3509 4.60985 19.5607C4.40008 19.7704 4.1328 19.9133 3.84183 19.9712C3.55086 20.0291 3.24926 19.9994 2.97517 19.8858C2.70108 19.7723 2.46681 19.58 2.30199 19.3334C2.13717 19.0867 2.04919 18.7967 2.04919 18.5C2.04919 18.1022 2.20723 17.7206 2.48853 17.4393C2.76984 17.158 3.15137 17 3.54919 17Z" fill="white"/>
<path d="M28.0492 14.5C27.6536 14.5 27.2669 14.6173 26.9381 14.8371C26.6092 15.0568 26.3528 15.3692 26.2014 15.7346C26.0501 16.1001 26.0105 16.5022 26.0876 16.8902C26.1648 17.2782 26.3553 17.6345 26.635 17.9142C26.9147 18.1939 27.271 18.3844 27.659 18.4616C28.047 18.5388 28.4491 18.4991 28.8146 18.3478C29.18 18.1964 29.4924 17.9401 29.7121 17.6112C29.9319 17.2823 30.0492 16.8956 30.0492 16.5C30.0492 15.9696 29.8385 15.4609 29.4634 15.0858C29.0883 14.7107 28.5796 14.5 28.0492 14.5ZM28.0492 17.5C27.8514 17.5 27.6581 17.4414 27.4936 17.3315C27.3292 17.2216 27.201 17.0654 27.1253 16.8827C27.0496 16.7 27.0298 16.4989 27.0684 16.3049C27.107 16.1109 27.2022 15.9328 27.3421 15.7929C27.4819 15.653 27.6601 15.5578 27.8541 15.5192C28.0481 15.4806 28.2491 15.5004 28.4319 15.5761C28.6146 15.6518 28.7708 15.78 28.8807 15.9444C28.9905 16.1089 29.0492 16.3022 29.0492 16.5C29.0492 16.7652 28.9438 17.0196 28.7563 17.2071C28.5688 17.3947 28.3144 17.5 28.0492 17.5Z" fill="white"/>
<path d="M6.0492 0.5C5.65363 0.5 5.26695 0.617298 4.93805 0.837061C4.60916 1.05682 4.35281 1.36918 4.20144 1.73463C4.05006 2.10009 4.01045 2.50222 4.08762 2.89018C4.1648 3.27814 4.35528 3.63451 4.63498 3.91421C4.91469 4.19392 5.27105 4.3844 5.65901 4.46157C6.04698 4.53874 6.44911 4.49913 6.81456 4.34776C7.18001 4.19638 7.49237 3.94004 7.71213 3.61114C7.9319 3.28224 8.0492 2.89556 8.0492 2.5C8.0492 1.96957 7.83848 1.46086 7.46341 1.08579C7.08834 0.710714 6.57963 0.5 6.0492 0.5ZM6.0492 3.5C5.85141 3.5 5.65807 3.44135 5.49363 3.33147C5.32918 3.22159 5.201 3.06541 5.12532 2.88268C5.04963 2.69996 5.02982 2.49889 5.06841 2.30491C5.10699 2.11093 5.20224 1.93275 5.34209 1.79289C5.48194 1.65304 5.66012 1.5578 5.8541 1.51921C6.04809 1.48063 6.24915 1.50043 6.43188 1.57612C6.6146 1.65181 6.77078 1.77998 6.88066 1.94443C6.99055 2.10888 7.0492 2.30222 7.0492 2.5C7.0492 2.76522 6.94384 3.01957 6.7563 3.20711C6.56877 3.39464 6.31441 3.5 6.0492 3.5Z" fill="white"/>
<path d="M6.29773 16.0632L9.79664 14.0638L10.2926 14.9318L6.79373 16.9312L6.29773 16.0632Z" fill="white"/>
<path d="M8.51215 4.66199L9.08115 3.83999L12.3305 6.08924L11.7615 6.91124L8.51215 4.66199Z" fill="white"/>
<path d="M20.7894 8.08112L26.2915 4.58041L26.8285 5.42441L21.3264 8.92512L20.7894 8.08112Z" fill="white"/>
<path d="M21.5319 13.1773L22.0729 12.3363L25.5723 14.5874L25.0313 15.4284L21.5319 13.1773Z" fill="white"/>
</g>
<defs>
<clipPath id="clip0_13_149">
<rect width="32" height="32" fill="white" transform="translate(0.549194)"/>
</clipPath>
</defs>
</svg>
