<svg width="33" height="32" viewBox="0 0 33 32" fill="none" xmlns="http://www.w3.org/2000/svg">
<g clip-path="url(#clip0_13_190)">
<path d="M6.87644 14.2983C6.33341 15.2098 6.31401 16.3541 6.86189 17.3092C7.40492 18.245 8.38916 18.7929 9.43644 18.7929H9.47038C9.46553 19.5104 9.71765 20.2232 10.1976 20.7759C10.314 20.9117 10.4449 21.0377 10.5952 21.1638C10.7067 21.2559 10.8231 21.3335 10.9637 21.4159C11.9189 21.9589 13.0679 21.9347 13.9698 21.4014C14.2995 21.9832 14.8231 22.4438 15.4583 22.6959C15.5407 22.7298 15.6231 22.7589 15.691 22.7783C15.7152 22.788 15.7492 22.7977 15.7589 22.7977C15.9528 22.8607 16.1661 22.8995 16.3746 22.9092C16.4376 22.9189 16.5007 22.9189 16.5637 22.9189C17.6546 22.9189 18.6389 22.3274 19.1673 21.3965C19.851 21.7989 20.6898 21.9201 21.4655 21.7068C21.5819 21.6729 21.6982 21.6341 21.8049 21.5904C21.9261 21.542 22.0473 21.4838 22.1831 21.4159C23.1285 20.8632 23.6861 19.8595 23.6716 18.7977H23.7055C24.7528 18.7977 25.737 18.245 26.2801 17.3092C26.8279 16.3541 26.8037 15.2001 26.2655 14.2983C27.1916 13.7747 27.7782 12.7904 27.7782 11.6995C27.7782 10.6086 27.1867 9.62438 26.2607 9.10074C26.8037 8.18923 26.8231 7.04499 26.2752 6.09468C25.7225 5.14438 24.7092 4.5868 23.6667 4.60135C23.6813 3.54438 23.1237 2.54074 22.1782 1.98802C21.2376 1.43529 20.0886 1.45468 19.177 2.00256C18.6486 1.0765 17.6643 0.484985 16.5734 0.484985C15.4873 0.484985 14.5031 1.0765 13.9746 2.00256C13.0583 1.45468 11.9092 1.43529 10.9637 1.98802C10.0134 2.54074 9.46068 3.54438 9.47522 4.60135C8.40856 4.5868 7.41947 5.14438 6.86674 6.09468C6.32371 7.03529 6.3431 8.17468 6.88613 9.09589C5.96007 9.61953 5.36856 10.6038 5.36856 11.6947C5.36371 12.7904 5.95523 13.7747 6.87644 14.2983ZM7.72492 9.77953C7.89947 9.72135 8.03038 9.57589 8.07401 9.3965L8.11765 9.10559L7.94795 8.9165C7.36613 8.27165 7.26917 7.3262 7.70553 6.57468C8.14674 5.81347 9.00977 5.42559 9.85341 5.60983C10.0473 5.65832 10.2461 5.59529 10.377 5.44499L10.5952 5.15893L10.4789 4.9262C10.3286 4.1068 10.7213 3.24862 11.4534 2.82196C12.2049 2.38559 13.1504 2.48256 13.8001 3.06438L13.8534 3.10802C14.0086 3.20983 14.2025 3.22923 14.3673 3.1565L14.634 3.02074L14.6679 2.80256C14.9589 1.99771 15.7201 1.45468 16.5734 1.45468C17.4413 1.45468 18.2073 2.00741 18.4886 2.8365L18.5419 3.06438L18.7843 3.1662C18.954 3.23892 19.1431 3.21953 19.2982 3.11771L19.3516 3.07408C20.0013 2.48741 20.9419 2.38559 21.6982 2.8268C22.4401 3.25832 22.8328 4.13105 22.6679 4.96499C22.6195 5.13468 22.6582 5.31892 22.7746 5.45468L23.0316 5.71165L23.3128 5.61468C24.1516 5.44014 25.0098 5.82802 25.4461 6.57953C25.8825 7.33589 25.7855 8.2765 25.2231 8.90196C25.0922 9.03286 25.0389 9.21711 25.0776 9.3965L25.1698 9.69711L25.4267 9.78438C26.2558 10.0559 26.8134 10.8268 26.8134 11.6995C26.8134 12.5674 26.2607 13.3383 25.4413 13.6147L25.194 13.668L25.097 13.9298C25.0292 14.1092 25.0679 14.3129 25.2037 14.4777C25.7855 15.1226 25.8825 16.0632 25.4461 16.8244C25.0098 17.5759 24.1467 17.9638 23.2982 17.7844C23.1092 17.7359 22.9055 17.7989 22.7746 17.9492L22.5564 18.2304L22.6728 18.4632C22.8279 19.302 22.4401 20.1456 21.7176 20.5674C21.6304 20.6159 21.5431 20.6547 21.4461 20.6935C21.3734 20.7226 21.291 20.7517 21.2182 20.771C20.5686 20.9504 19.8558 20.7807 19.3419 20.3153C19.1964 20.1941 18.9976 20.1553 18.8231 20.2183L18.537 20.3347L18.4886 20.5723C18.2025 21.3917 17.4364 21.9444 16.5783 21.9444C16.554 21.9444 16.5346 21.9444 16.4764 21.9395C16.3164 21.9298 16.1855 21.9056 16.0692 21.8717L15.9916 21.8523C15.9286 21.8329 15.8752 21.8135 15.8219 21.7941C15.2789 21.5759 14.857 21.1347 14.6679 20.5771L14.6098 20.3298L14.3479 20.2329C14.1686 20.165 13.9649 20.2038 13.8049 20.3347C13.1601 20.9117 12.2146 21.0086 11.4631 20.582C11.3758 20.5286 11.2983 20.4801 11.2255 20.4171C11.1189 20.325 11.0219 20.2377 10.9443 20.1456C10.537 19.6704 10.3673 19.0353 10.4886 18.4292C10.537 18.2595 10.4983 18.0801 10.3819 17.9444L10.1249 17.6874L9.84371 17.7795C8.99522 17.9492 8.14189 17.5662 7.71038 16.8195C7.27401 16.0583 7.37098 15.1129 7.9625 14.4583C8.08856 14.308 8.1225 14.1044 8.05462 13.925L7.92856 13.6389L7.69098 13.6001C6.88129 13.3141 6.33826 12.5529 6.33826 11.6898C6.33341 10.822 6.89098 10.0559 7.72492 9.77953Z" fill="white"/>
<path d="M16.5734 19.0062C20.6025 19.0062 23.88 15.7286 23.88 11.6995C23.88 7.67042 20.6025 4.388 16.5734 4.388C12.5443 4.388 9.26672 7.66558 9.26672 11.6947C9.26672 15.7238 12.5443 19.0062 16.5734 19.0062ZM16.5734 5.3577C20.0691 5.3577 22.9103 8.19891 22.9103 11.6947C22.9103 15.1904 20.0643 18.0316 16.5734 18.0316C13.0825 18.0316 10.2364 15.1904 10.2364 11.6947C10.2364 8.20376 13.0776 5.3577 16.5734 5.3577Z" fill="white"/>
<path d="M5.80008 29.9638L6.09584 29.7941C6.96372 29.2898 7.95766 28.7759 9.09221 28.2377C9.31524 29.3141 9.55766 30.2498 9.83402 31.1371L9.95523 31.4814L10.2849 31.5153C10.3043 31.5153 10.3189 31.5202 10.3383 31.5202C10.5371 31.5202 10.7213 31.4086 10.8086 31.2341L10.828 31.1856C11.6377 29.0038 13.034 26.9674 14.3868 24.9941C14.668 24.582 14.954 24.1698 15.2304 23.7529L14.4255 23.2147C14.1492 23.6268 13.868 24.0341 13.5868 24.4462C12.4425 26.1141 11.2692 27.8256 10.4158 29.6632C10.2413 28.9989 10.0861 28.2959 9.93099 27.5153C9.9116 27.3747 9.82917 27.2438 9.71281 27.1614L9.44614 27.0062L9.19887 27.1226C8.29705 27.5395 7.48736 27.942 6.74554 28.3347C7.56008 26.5989 8.68978 24.9505 9.79039 23.3456C10.0328 22.9917 10.2752 22.6426 10.5128 22.2886L9.70796 21.7456C9.47039 22.0995 9.23281 22.4486 8.99039 22.7977C7.61827 24.805 6.19766 26.8802 5.35402 29.1541C5.26675 29.3626 5.32493 29.605 5.49463 29.7505L5.80008 29.9638Z" fill="white"/>
<path d="M22.2704 27.142L22.0279 27.3117V27.5347C21.8873 28.2717 21.7273 28.9747 21.5528 29.6486C20.6898 27.7965 19.5067 26.0753 18.3528 24.3977C18.154 24.1117 17.9601 23.8256 17.7661 23.5395L16.9661 24.0874C17.1601 24.3735 17.3589 24.6644 17.5576 24.9505C18.9201 26.9335 20.331 28.9844 21.1407 31.1662C21.1989 31.3747 21.3976 31.5153 21.6255 31.5153H21.6352L22.0231 31.4814L22.1249 31.1468C22.411 30.2208 22.6582 29.2608 22.8716 28.2329C24.0061 28.7711 24.9855 29.2802 25.8534 29.7796L26.1298 29.9832L26.4352 29.765C26.6292 29.6244 26.7067 29.3723 26.6195 29.1493C25.7564 26.8559 24.3213 24.7565 22.9298 22.7298L22.5758 22.2111L21.7758 22.7589L22.1346 23.2826C23.2449 24.9068 24.3892 26.5699 25.2134 28.3202C24.4764 27.9274 23.6667 27.5299 22.7746 27.1177C22.6195 27.0353 22.4255 27.045 22.2704 27.142Z" fill="white"/>
<path d="M13.3977 15.7771C13.3637 15.971 13.4461 16.1698 13.6061 16.2813L13.8825 16.4607L16.6025 15.011L19.0704 16.291C19.2449 16.3832 19.4534 16.3638 19.6134 16.2474L19.8704 16.0389L19.3322 13.0038L21.3104 11.0547C21.451 10.9189 21.5043 10.7104 21.4413 10.5213L21.3249 10.211L18.2704 9.78438L17.0243 7.29226C16.9371 7.11771 16.7625 7.01105 16.5637 7.01105H16.5589L16.234 7.03044L14.8861 9.80377L12.1322 10.2207C11.9383 10.2498 11.7831 10.3856 11.7201 10.5698L11.6328 10.8898L13.8534 13.028L13.3977 15.7771ZM13.1795 11.045L15.2498 10.7298L15.5261 10.6765L16.5589 8.55771L17.4946 10.4244L17.6304 10.6765L19.9674 11.0013L18.474 12.4704L18.2801 12.6741L18.6922 14.9965L16.8304 14.0316L16.5734 13.9104L14.5031 15.0304L14.8474 12.9504L14.8764 12.6789L13.1795 11.045Z" fill="white"/>
</g>
<defs>
<clipPath id="clip0_13_190">
<rect width="32" height="32" fill="white" transform="translate(0.549194 0.00012207)"/>
</clipPath>
</defs>
</svg>
