<svg width="31" height="32" viewBox="0 0 31 32" fill="none" xmlns="http://www.w3.org/2000/svg">
<path d="M28.4576 23.385V22.5916C28.4576 22.5574 28.4539 22.524 28.4471 22.4917C28.3573 21.6495 27.6468 20.993 26.7945 20.9729C26.7838 20.9722 26.773 20.972 26.7623 20.972H23.5013V18.7083H25.1354C25.2171 18.9634 25.3587 19.1971 25.5521 19.3897C25.8736 19.7115 26.3011 19.8885 26.7557 19.8885C27.6673 19.8885 28.4061 19.1846 28.4544 18.2794C28.4564 18.262 28.4576 18.2444 28.4576 18.2266V17.565C29.5074 17.2642 30.2782 16.2962 30.2782 15.1509C30.2782 14.0059 29.5074 13.0379 28.4576 12.7371V11.9437C28.4576 11.0506 27.731 10.3241 26.838 10.3241H23.5013V9.02328C23.5013 7.78427 22.4933 6.77622 21.2543 6.77622H20.3204V6.41245C20.3204 6.14634 20.1049 5.93076 19.839 5.93076C19.5729 5.93076 19.3573 6.14634 19.3573 6.41245V8.26083C19.3573 8.53964 19.1305 8.7662 18.8519 8.7662C18.7172 8.7662 18.5905 8.71371 18.4952 8.61825C18.3998 8.52304 18.3473 8.39609 18.3473 8.26083V4.74254C18.3473 4.47642 18.1315 4.26085 17.8656 4.26085H17.3822C17.7628 3.86949 18.0175 3.35533 18.0792 2.7838H18.6346C18.6385 2.78405 18.6422 2.78429 18.6459 2.78429C19.0448 2.79503 19.3573 3.11632 19.3573 3.51598V4.51109C19.3573 4.7772 19.5729 4.99278 19.839 4.99278C20.1049 4.99278 20.3207 4.7772 20.3207 4.51109V3.51598C20.3207 2.6029 19.6158 1.86706 18.7093 1.82336C18.6927 1.82165 18.6759 1.82067 18.6586 1.82067H17.9969C17.6962 0.770871 16.7282 0.00012207 15.5829 0.00012207C14.4379 0.00012207 13.4701 0.770871 13.1691 1.82067H12.3751C12.3412 1.82067 12.308 1.82433 12.276 1.83117C11.4328 1.92126 10.7763 2.63195 10.7572 3.484C10.7565 3.49449 10.7563 3.50524 10.7563 3.51598V6.77622H9.82242C8.58341 6.77622 7.5756 7.78427 7.5756 9.02328V10.346H4.31243C3.8593 10.3487 3.43401 10.5269 3.11541 10.8472C2.84393 11.1195 2.67547 11.4754 2.63275 11.856C2.62444 11.8909 2.61981 11.9276 2.61981 11.9649V12.7586C1.57 13.0596 0.799255 14.0274 0.799255 15.1727C0.799255 16.3177 1.57 17.2857 2.61981 17.5865V18.2486C2.61981 18.2657 2.62078 18.2825 2.62249 18.2991C2.66595 19.2054 3.40227 19.91 4.31511 19.91H7.57535V20.9939H6.09831C5.83244 20.9939 5.61687 21.2095 5.61687 21.4756C5.61687 21.7415 5.83244 21.9571 6.09831 21.9571H9.53726C9.85416 21.9571 10.112 22.2146 10.112 22.5313C10.112 22.8482 9.85416 23.106 9.53726 23.106H5.54167C5.2758 23.106 5.06023 23.3216 5.06023 23.5877V24.0213C4.66887 23.6407 4.15447 23.3863 3.58318 23.3243V22.6128C3.58318 22.2513 3.87761 21.9573 4.23943 21.9573C4.50554 21.9573 4.72112 21.7415 4.72112 21.4756C4.72112 21.2095 4.50554 20.9939 4.23943 20.9939C3.34637 20.9939 2.61981 21.7203 2.61981 22.6128V23.4068C1.57025 23.7076 0.7995 24.6756 0.7995 25.8206C0.7995 26.9656 1.57025 27.9336 2.61981 28.2346V28.8965C2.61981 28.9143 2.62103 28.9317 2.62298 28.949C2.67132 29.854 3.41009 30.5579 4.3217 30.5579C4.77654 30.5579 5.20402 30.3809 5.5258 30.0591C5.71867 29.8657 5.86003 29.6323 5.94182 29.3782H7.5756V29.7532C7.5756 30.9922 8.58341 32.0002 9.82242 32.0002H18.4923C18.7584 32.0002 18.974 31.7844 18.974 31.5186C18.974 31.2524 18.7584 31.0369 18.4923 31.0369H9.82242C9.11466 31.0369 8.53873 30.4609 8.53873 29.7532V24.0694H9.53726C10.3854 24.0694 11.0753 23.3794 11.0753 22.5315C11.0753 21.6836 10.3854 20.9939 9.53726 20.9939H8.53873V9.02328C8.53873 8.31552 9.11466 7.7396 9.82242 7.7396H10.7563V8.26108C10.7563 8.65341 10.9088 9.02231 11.1862 9.2994C11.4635 9.57699 11.8324 9.72958 12.2248 9.72958C13.0343 9.72958 13.6928 9.07089 13.6928 8.26108V7.7396H17.3839V8.26108C17.3839 8.65341 17.5367 9.02231 17.8141 9.2994C18.0914 9.57699 18.4598 9.72958 18.8519 9.72958C19.6617 9.72958 20.3207 9.07089 20.3207 8.26108V7.7396H21.2543C21.962 7.7396 22.5379 8.31552 22.5379 9.02328V10.3243H21.5401C20.692 10.3243 20.0021 11.0142 20.0021 11.8621C20.0021 12.7103 20.692 13.4002 21.5401 13.4002H22.5379V29.7529C22.5379 30.4607 21.962 31.0366 21.2543 31.0366H20.4188C20.1529 31.0366 19.9374 31.2522 19.9374 31.5183C19.9374 31.7844 20.1529 32 20.4188 32H21.2543C22.2179 32 23.0414 31.3901 23.3602 30.5364H26.7623C27.6754 30.5364 28.4115 29.8316 28.4549 28.9251C28.4566 28.9085 28.4576 28.8916 28.4576 28.8745V28.2132C29.5074 27.9121 30.2782 26.9444 30.2782 25.7991C30.2782 24.6538 29.5074 23.6861 28.4576 23.385ZM1.76263 25.8206C1.76263 24.9668 2.45721 24.2722 3.31072 24.2722C4.16448 24.2722 4.85881 24.9668 4.85881 25.8206C4.85881 26.6741 4.16448 27.3687 3.31072 27.3687C2.45721 27.3687 1.76263 26.6741 1.76263 25.8206ZM4.3217 29.5945C3.92058 29.5945 3.59636 29.281 3.58343 28.8809C3.58343 28.8794 3.58343 28.8755 3.58318 28.874C3.58294 28.8682 3.58318 28.8626 3.58318 28.8567V28.3169C4.15447 28.2549 4.66887 28.0005 5.06023 27.6199V28.8567C5.06023 28.8626 5.06023 28.8682 5.05998 28.874C5.05998 28.8765 5.05974 28.8787 5.05974 28.8811C5.05364 29.0684 4.97697 29.2454 4.84416 29.3784C4.70476 29.5178 4.51921 29.5945 4.3217 29.5945ZM7.5756 25.3389H6.84782C6.58171 25.3389 6.36613 25.5545 6.36613 25.8206C6.36613 26.0865 6.58171 26.302 6.84782 26.302H7.5756V28.4148H6.02336V24.0691H7.5756V25.3389ZM6.84782 15.6544H7.5756V16.9732H6.02336V13.2828H7.5756V14.691H6.84782C6.58171 14.691 6.36613 14.9066 6.36613 15.1727C6.36613 15.4385 6.58171 15.6544 6.84782 15.6544ZM3.79827 11.5269C3.93645 11.3875 4.12102 11.3104 4.31536 11.3092H7.5756V12.3194H5.54167C5.2758 12.3194 5.06023 12.535 5.06023 12.8011V13.3731C4.66887 12.9928 4.15447 12.7381 3.58318 12.6763V12.0477C3.58318 12.0355 3.58294 12.0228 3.58416 12.0106C3.58465 12.0059 3.58489 12.0013 3.58513 11.9964C3.59685 11.8197 3.67229 11.6532 3.79827 11.5269ZM1.76263 15.1727C1.76263 14.3189 2.45721 13.6243 3.31072 13.6243C4.16448 13.6243 4.85881 14.3189 4.85881 15.1727C4.85881 16.0262 4.16448 16.7208 3.31072 16.7208C2.45721 16.7208 1.76263 16.0262 1.76263 15.1727ZM4.31536 18.9466C3.91546 18.9466 3.59417 18.6343 3.58367 18.2359C3.58343 18.2308 3.58343 18.2305 3.58318 18.2256V17.669C4.15447 17.607 4.66887 17.3526 5.05998 16.972V17.4549C5.05998 17.7208 5.27556 17.9366 5.54167 17.9366H7.57535V18.9466H4.31536ZM15.5829 0.963253C16.4367 0.963253 17.1312 1.65783 17.1312 2.51159C17.1312 3.3651 16.4367 4.05968 15.5829 4.05968C14.7294 4.05968 14.0348 3.3651 14.0348 2.51159C14.0348 1.65783 14.7294 0.963253 15.5829 0.963253ZM12.7296 8.26083C12.7296 8.53964 12.5031 8.7662 12.2248 8.7662C12.0897 8.7662 11.9628 8.71371 11.8673 8.61825C11.7721 8.52304 11.7194 8.39609 11.7194 8.26083V3.54064C11.7199 3.53331 11.7201 3.52574 11.7201 3.51842C11.7221 3.13341 12.0238 2.81164 12.4074 2.786C12.4118 2.78576 12.4162 2.78527 12.4208 2.78502C12.433 2.7838 12.4455 2.7838 12.4579 2.7838H13.0868C13.1488 3.35533 13.4032 3.86949 13.7838 4.26085H13.2113C12.9452 4.26085 12.7296 4.47642 12.7296 4.74254V8.26083ZM16.0646 6.77622V6.04844C16.0646 5.78233 15.849 5.56675 15.5829 5.56675C15.317 5.56675 15.1015 5.78233 15.1015 6.04844V6.77622H13.6928V5.22422H17.3839V6.77622H16.0646ZM23.5018 21.9353H26.7374C26.7447 21.9356 26.752 21.9358 26.7594 21.9358C27.1451 21.9383 27.4669 22.24 27.4923 22.6233C27.4925 22.628 27.4928 22.6326 27.4933 22.6372C27.4945 22.6492 27.4942 22.6614 27.4942 22.6736V23.3028C26.9229 23.3648 26.4085 23.6192 26.0172 23.9998V23.4275C26.0172 23.1617 25.8016 22.9461 25.5357 22.9461H23.5018V21.9353ZM23.5018 26.2808H24.2298C24.4957 26.2808 24.7115 26.0652 24.7115 25.7991C24.7115 25.5332 24.4957 25.3174 24.2298 25.3174H23.5018V23.9095H25.0541V27.5999H23.5018V26.2808ZM23.5018 15.6329H24.2298C24.4957 15.6329 24.7115 15.4173 24.7115 15.1512C24.7115 14.8853 24.4957 14.6697 24.2298 14.6697H23.5018V13.4002H25.0541V17.7452H23.5018V15.6329ZM26.7557 18.9253C26.5584 18.9253 26.3729 18.8484 26.2328 18.7083C26.1002 18.576 26.0238 18.3995 26.0177 18.2115C26.0177 18.2083 26.0174 18.2059 26.0174 18.2027V16.9505C26.4085 17.3311 26.9229 17.5855 27.4942 17.6475V18.1868C27.4942 18.1929 27.4945 18.1985 27.4942 18.2044C27.494 18.2066 27.494 18.209 27.494 18.2112C27.4808 18.6116 27.1568 18.9253 26.7557 18.9253ZM29.3148 15.1512C29.3148 16.0049 28.6204 16.6993 27.7667 16.6993C26.9132 16.6993 26.2186 16.0049 26.2186 15.1512C26.2186 14.2977 26.9132 13.6031 27.7667 13.6031C28.6204 13.6031 29.3148 14.2977 29.3148 15.1512ZM20.9654 11.8621C20.9654 11.5452 21.2233 11.2874 21.5401 11.2874H26.838C27.1998 11.2874 27.4942 11.5819 27.4942 11.9437V12.6549C26.9229 12.7169 26.4088 12.9713 26.0174 13.3519V12.9185C26.0174 12.6527 25.8016 12.4368 25.5357 12.4368H21.5401C21.2233 12.4368 20.9654 12.179 20.9654 11.8621ZM26.7623 29.5733H23.5018V28.5632H25.5357C25.8016 28.5632 26.0172 28.3474 26.0172 28.0816V27.5984C26.4085 27.979 26.9229 28.2334 27.4942 28.2954V28.8513C27.494 28.855 27.494 28.8584 27.4937 28.8618C27.4832 29.2608 27.162 29.5733 26.7623 29.5733ZM27.7667 27.3472C26.9132 27.3472 26.2186 26.6526 26.2186 25.7991C26.2186 24.9456 26.9132 24.251 27.7667 24.251C28.6204 24.251 29.315 24.9456 29.315 25.7991C29.3148 26.6529 28.6204 27.3472 27.7667 27.3472Z" fill="white"/>
</svg>
