<svg width="33" height="32" viewBox="0 0 33 32" fill="none" xmlns="http://www.w3.org/2000/svg">
<path d="M16.5493 25.9826C16.2904 25.9826 16.0806 26.1924 16.0806 26.4513V29.7845C16.0806 30.0434 16.2904 30.2533 16.5493 30.2533C16.8083 30.2533 17.0181 30.0434 17.0181 29.7845V26.4513C17.0181 26.1924 16.8083 25.9826 16.5493 25.9826ZM16.5493 24.1075C16.2904 24.1075 16.0806 24.3174 16.0806 24.5763C16.0806 24.8351 16.2904 25.045 16.5493 25.045C16.8082 25.045 17.0181 24.8351 17.0181 24.5763C17.0181 24.3174 16.8082 24.1075 16.5493 24.1075ZM16.5493 22.3607C13.8918 22.3607 11.7297 24.5228 11.7297 27.1803C11.7297 29.8378 13.8918 32 16.5493 32C19.2069 32 21.3689 29.8379 21.3689 27.1804C21.3689 24.5229 19.2068 22.3607 16.5493 22.3607ZM16.5493 31.0625C14.4087 31.0625 12.6672 29.321 12.6672 27.1804C12.6672 25.0397 14.4087 23.2983 16.5493 23.2983C18.6899 23.2983 20.4314 25.0397 20.4314 27.1804C20.4314 29.321 18.6899 31.0625 16.5493 31.0625ZM31.4554 16.4375H22.8681V15.1462H25.8329C26.6083 15.1462 27.2392 14.5154 27.2392 13.74V7.9475C27.2392 7.17206 26.6083 6.54125 25.8329 6.54125H17.0911C16.3157 6.54125 15.6848 7.17206 15.6848 7.9475V9.96838L13.6813 9.35781C13.1633 9.22188 13.0462 8.65506 13.0954 8.19006C13.7916 7.57531 14.2318 6.67719 14.2318 5.67769V2.15925C14.2318 0.968688 13.2632 0 12.0725 0H9.68619C8.49557 0 7.52688 0.968688 7.52688 2.15925V5.67763C7.52688 6.70312 7.99019 7.622 8.71794 8.23744C8.76813 8.69312 8.63344 9.23406 8.13238 9.36725L5.48319 10.1754C4.18619 10.5706 3.31482 11.7471 3.31482 13.1031V15.0312C3.31482 15.2901 3.52463 15.5 3.78357 15.5C4.04251 15.5 4.25232 15.2901 4.25232 15.0312V13.1031C4.25232 12.1624 4.85676 11.3463 5.75657 11.0721L6.77157 10.7625L8.71238 12.4231C8.88188 12.5681 9.09151 12.6392 9.30044 12.6392C9.55188 12.6392 9.80232 12.5363 9.98013 12.3353L10.4106 11.8491V16.4375H7.38094V15.6256C7.38094 15.3667 7.17113 15.1568 6.91219 15.1568C6.65326 15.1568 6.44344 15.3667 6.44344 15.6256V16.4375H1.64294C1.03988 16.4375 0.549194 16.9282 0.549194 17.5312V19.0938C0.549194 19.6968 1.03988 20.1875 1.64294 20.1875H2.89307V31.5312C2.89307 31.7902 3.10288 32 3.36182 32C3.62076 32 3.83057 31.7902 3.83057 31.5312V20.1875H31.4554C32.0585 20.1875 32.5492 19.6968 32.5492 19.0938V17.5312C32.5492 16.9282 32.0585 16.4375 31.4554 16.4375ZM16.6223 10.6007C16.6223 10.5994 16.6223 10.5979 16.6223 10.5966V7.9475C16.6223 7.689 16.8326 7.47875 17.0911 7.47875H25.8329C26.0914 7.47875 26.3017 7.689 26.3017 7.9475V13.74C26.3017 13.9985 26.0914 14.2087 25.8329 14.2087H22.8681V13.1562C22.8681 12.3808 22.2372 11.75 21.4618 11.75C20.6864 11.75 20.0556 12.3808 20.0556 13.1562V14.2087H17.0911C16.8326 14.2087 16.6223 13.9985 16.6223 13.74V10.6007ZM21.9306 14.6799V16.4375H20.9931V13.1562C20.9931 12.8977 21.2033 12.6875 21.4618 12.6875C21.7203 12.6875 21.9306 12.8977 21.9306 13.1562V14.6751C21.9306 14.6759 21.9304 14.6766 21.9304 14.6775C21.9304 14.6784 21.9306 14.6791 21.9306 14.6799ZM20.0556 15.1462V16.4375H18.5336V15.1462H20.0556ZM15.6848 10.9484V13.74C15.6848 14.5154 16.3157 15.1462 17.0911 15.1462H17.5961V16.4375H15.3152V15.6256C15.3152 15.3667 15.1054 15.1568 14.8464 15.1568C14.5875 15.1568 14.3777 15.3667 14.3777 15.6256V16.4375H11.3481V11.8273L11.8194 12.3472C11.9989 12.5452 12.2439 12.6464 12.4903 12.6464C12.6981 12.6464 12.907 12.5745 13.0786 12.4283L15.0441 10.7532L15.6848 10.9484ZM13.4081 10.2546L13.9794 10.4288L12.4936 11.6951L11.6138 10.7246L12.8731 9.98469C13.0339 10.1038 13.2143 10.1956 13.4081 10.2546ZM8.46444 2.15925C8.46444 1.48556 9.01257 0.9375 9.68626 0.9375H12.0726C12.7463 0.9375 13.2944 1.48563 13.2944 2.15925V3.43313C12.3958 2.86294 11.3079 2.72556 10.2928 3.06L8.46451 3.66231V2.15925H8.46444ZM8.46444 5.67763V4.64937L10.586 3.95044C11.3553 3.697 12.1818 3.81106 12.8536 4.26325L13.2943 4.55981V5.67769C13.2943 7.00931 12.2109 8.09262 10.8793 8.09262C9.54769 8.09262 8.46444 7.00925 8.46444 5.67763ZM9.29857 11.6908L7.83463 10.4382L8.40563 10.2641C8.60001 10.2049 8.78019 10.1131 8.94044 9.99469L10.1546 10.7239L9.29857 11.6908ZM9.52019 9.24931C9.58051 9.10319 9.62113 8.9495 9.64063 8.79187C10.0241 8.94494 10.4419 9.03006 10.8793 9.03006C11.337 9.03006 11.7734 8.93762 12.1712 8.77087C12.19 8.93219 12.231 9.08931 12.2924 9.2385L10.8819 10.0672L9.52019 9.24931ZM31.6117 19.0938C31.6117 19.1799 31.5416 19.25 31.4554 19.25H1.64294C1.55676 19.25 1.48669 19.1799 1.48669 19.0938V17.5312C1.48669 17.4451 1.55676 17.375 1.64294 17.375H31.4554C31.5416 17.375 31.6117 17.4451 31.6117 17.5312V19.0938ZM29.7368 21.3604C29.4779 21.3604 29.2681 21.5702 29.2681 21.8291V31.5312C29.2681 31.7902 29.4779 32 29.7368 32C29.9958 32 30.2056 31.7902 30.2056 31.5312V21.8291C30.2056 21.5702 29.9958 21.3604 29.7368 21.3604Z" fill="white"/>
</svg>
