<svg width="92" height="92" viewBox="0 0 92 92" fill="none" xmlns="http://www.w3.org/2000/svg">
<path d="M43.1254 2.87514C43.9317 2.87514 44.5834 2.20399 44.5285 1.38964C44.4769 0.62444 43.811 0.0501253 43.0448 0.0950168C42.2778 0.140094 41.6925 0.798441 41.7376 1.56549C41.7812 2.30472 42.3943 2.87514 43.1254 2.87514ZM48.7472 2.86716C49.4786 2.86716 50.0921 2.296 50.1347 1.5564C50.1795 0.785642 49.5836 0.130262 48.809 0.0859272C48.0438 0.0421487 47.3836 0.62611 47.3385 1.39316C47.2914 2.1936 47.9419 2.86716 48.7472 2.86716ZM37.8502 3.55092C38.6049 3.4066 39.0998 2.67776 38.9555 1.92314C38.8111 1.16852 38.0834 0.673598 37.3277 0.817919C36.5651 0.963538 36.064 1.68811 36.2121 2.45164C36.3594 3.20978 37.1095 3.69265 37.8502 3.55092ZM2.42155 36.3058C3.1463 36.4924 3.92226 36.0574 4.11592 35.3054C4.30977 34.553 3.86716 33.783 3.11532 33.5919C2.36998 33.4025 1.61331 33.8536 1.42466 34.5982L1.42132 34.6114C1.22969 35.3555 1.6775 36.114 2.42155 36.3058ZM32.5751 4.90936C33.3149 4.66857 33.7287 3.88446 33.4835 3.14337C33.242 2.41324 32.4523 2.02498 31.7198 2.26168C30.9887 2.49783 30.5875 3.28213 30.8236 4.01319C31.0623 4.75205 31.8604 5.14179 32.5751 4.90936ZM6.23213 66.2976C5.56154 66.6723 5.32187 67.5199 5.69603 68.1907L5.70011 68.1982C5.95351 68.6589 6.4295 68.9193 6.92053 68.9193C7.14721 68.9193 7.37705 68.8638 7.58964 68.7468C8.26282 68.3765 8.50861 67.5304 8.13835 66.8573C8.13668 66.8543 8.12611 66.8352 8.12462 66.8324C7.74954 66.162 6.90254 65.9229 6.23213 66.2976ZM1.73352 41.8542C2.42915 41.8542 3.02999 41.3338 3.11328 40.6259C3.21401 39.8643 2.67828 39.1651 1.91661 39.0642C1.14362 38.9618 0.445391 39.5237 0.350043 40.2993C0.2495 41.1168 0.902468 41.8542 1.73352 41.8542ZM3.98663 30.9218C4.68541 31.195 5.49624 30.8526 5.78878 30.1321C6.07798 29.4203 5.73517 28.6087 5.0234 28.3195C4.312 28.0304 3.50006 28.3728 3.21086 29.0847C2.91684 29.8088 3.26076 30.638 3.98663 30.9218ZM27.533 6.91667C28.2427 6.58333 28.5616 5.73892 28.214 5.03197C27.875 4.34265 27.0468 4.05586 26.3569 4.39496C25.6663 4.73424 25.3572 5.54878 25.6833 6.24608C26.0126 6.95025 26.8505 7.23722 27.533 6.91667ZM87.8499 35.1729C88.0432 35.9235 88.8118 36.3642 89.5406 36.1793C90.2854 35.9902 90.736 35.2334 90.547 34.4886L90.5412 34.4658C90.3494 33.7216 89.5922 33.2803 88.8485 33.4721C88.1044 33.6637 87.6583 34.4289 87.8499 35.1729ZM85.0897 68.9006C85.584 68.9006 86.0628 68.6364 86.3147 68.1712L86.319 68.1632C86.6892 67.49 86.4436 66.6441 85.7703 66.2737C85.0967 65.903 84.251 66.1492 83.8807 66.8224L83.8672 66.8472C83.3651 67.7447 84.0562 68.9006 85.0897 68.9006ZM86.9465 28.1934C86.2309 28.473 85.8773 29.2797 86.1569 29.9956L86.1735 30.0375C86.4692 30.7559 87.2956 31.0854 87.9924 30.7979C88.7027 30.5048 89.0429 29.6965 88.7498 28.9862L88.7487 28.9831C88.4691 28.2672 87.6622 27.9135 86.9465 28.1934ZM90.0667 38.9327C89.305 39.0334 88.7691 39.732 88.8698 40.4939C88.9713 41.26 89.6621 41.8015 90.4141 41.713C91.1773 41.6232 91.723 40.9318 91.6332 40.1687L91.6284 40.1303C91.5279 39.3684 90.8297 38.8325 90.0667 38.9327ZM85.7436 25.6619C86.4141 25.2871 86.6538 24.4396 86.2797 23.7688L86.2756 23.7612C85.9051 23.0878 85.0591 22.8422 84.3861 23.2125C83.7129 23.5828 83.4671 24.4288 83.8373 25.102C83.839 25.105 83.8496 25.1241 83.8511 25.1269C84.2154 25.8127 85.0835 26.0306 85.7436 25.6619ZM59.3034 4.86984C60.0172 5.0969 60.816 4.71347 61.0549 3.97368C61.291 3.24262 60.8898 2.45831 60.1587 2.22217C59.4193 1.98324 58.6293 2.37892 58.3933 3.12037C58.1605 3.85255 58.5712 4.63685 59.3034 4.86984ZM54.062 3.53441C54.8011 3.66556 55.5434 3.16972 55.6781 2.40693C55.8117 1.65027 55.3108 0.929406 54.554 0.795844L54.5504 0.795102C53.7973 0.648555 53.0661 1.14162 52.9195 1.89587C52.7709 2.66144 53.29 3.39733 54.062 3.53441ZM64.3457 6.85954C65.0283 7.17879 65.8655 6.90387 66.2 6.20156C66.5303 5.50779 66.2358 4.67766 65.542 4.34728C64.8391 4.01264 64.0008 4.30221 63.6708 5.00804C63.3451 5.70386 63.6497 6.53398 64.3457 6.85954ZM7.54678 23.3143C6.86933 22.9478 6.02845 23.2078 5.6567 23.8838C5.28644 24.557 5.53205 25.4029 6.20542 25.7733C6.871 26.1395 7.73414 25.8921 8.10849 25.2C8.47392 24.5242 8.22238 23.6801 7.54678 23.3143ZM78.6483 69.3749C76.4564 69.3749 74.4411 70.1408 72.8519 71.4167L67.9246 66.4894C72.9448 61.1206 76.0232 53.9142 76.0232 46.0016C76.0232 38.3584 73.1507 31.3744 68.4306 26.0687L73.4609 21.0384C74.9425 22.0416 76.728 22.6282 78.6481 22.6282C83.7624 22.6282 87.9232 18.4673 87.9232 13.353C87.9232 8.23875 83.7624 4.07793 78.6481 4.07793C73.5338 4.07793 69.373 8.23875 69.373 13.353C69.373 15.5449 70.1389 17.5602 71.4148 19.1494L66.4875 24.0767C61.1187 19.0565 53.9125 15.9781 45.9997 15.9781C40.1679 15.9781 34.5129 17.6521 29.6455 20.8191C28.1641 21.783 26.7782 22.8691 25.5001 24.063L20.5854 19.1483C21.8609 17.5595 22.6264 15.5446 22.6264 13.353C22.6264 8.23875 18.4656 4.07793 13.3513 4.07793C8.23704 4.07793 4.07622 8.23875 4.07622 13.353C4.07622 18.4673 8.23704 22.6282 13.3513 22.6282C15.2718 22.6282 17.0579 22.0412 18.5396 21.0377L23.5593 26.0573C21.6234 28.2338 20.0031 30.6867 18.7622 33.3548C18.4382 34.0516 18.7404 34.8789 19.4371 35.203C20.1338 35.5274 20.9614 35.2251 21.2853 34.5281C22.5849 31.7337 24.3425 29.1986 26.4719 27.0105C26.4732 27.0092 26.4747 27.008 26.4762 27.0066C26.479 27.0036 26.4814 27.0004 26.4841 26.9977C27.8895 25.5556 29.455 24.2628 31.1631 23.1515C35.5775 20.279 40.7081 18.7606 45.9995 18.7606C61.0202 18.7606 73.2405 30.9808 73.2405 46.0016C73.2405 61.0225 61.0204 73.2426 45.9995 73.2426C30.9787 73.2426 18.7585 61.0225 18.7585 46.0016C18.7585 44.2253 18.9305 42.4487 19.2696 40.7211C19.4176 39.9672 18.9264 39.236 18.1723 39.088C17.419 38.9401 16.6872 39.4311 16.5392 40.1852C16.1654 42.0888 15.9758 44.0457 15.9758 46.0016C15.9758 53.9144 19.0542 61.1206 24.0745 66.4894L19.1472 71.4167C17.558 70.1408 15.5427 69.3749 13.3508 69.3749C8.23648 69.3749 4.07567 73.5357 4.07567 78.65C4.07567 83.7643 8.23648 87.9251 13.3508 87.9251C18.4651 87.9251 22.6259 83.7643 22.6259 78.65C22.6259 76.7299 22.0393 74.9442 21.0361 73.4628L26.0664 68.4325C31.3721 73.1526 38.3561 76.0251 45.9993 76.0251C53.6426 76.0251 60.6266 73.1526 65.9323 68.4325L70.9626 73.4628C69.9594 74.9444 69.3728 76.7301 69.3728 78.65C69.3728 83.7643 73.5336 87.9251 78.6479 87.9251C83.7622 87.9251 87.923 83.7643 87.923 78.65C87.923 73.5357 83.7626 69.3749 78.6483 69.3749ZM78.6483 6.86065C82.2283 6.86065 85.1409 9.77322 85.1409 13.3532C85.1409 16.9332 82.2283 19.8458 78.6483 19.8458C75.0683 19.8458 72.1557 16.9332 72.1557 13.3532C72.1557 9.77322 75.0683 6.86065 78.6483 6.86065ZM13.3515 19.8458C9.77151 19.8458 6.85894 16.9332 6.85894 13.3532C6.85894 9.77322 9.77151 6.86065 13.3515 6.86065C16.9315 6.86065 19.8441 9.77322 19.8441 13.3532C19.8441 16.9332 16.9315 19.8458 13.3515 19.8458ZM13.3515 85.1426C9.77151 85.1426 6.85894 82.23 6.85894 78.65C6.85894 75.07 9.77151 72.1574 13.3515 72.1574C16.9315 72.1574 19.8441 75.07 19.8441 78.65C19.8441 82.23 16.9315 85.1426 13.3515 85.1426ZM78.6483 85.1426C75.0683 85.1426 72.1557 82.23 72.1557 78.65C72.1557 75.07 75.0683 72.1574 78.6483 72.1574C82.2283 72.1574 85.1409 75.07 85.1409 78.65C85.1409 82.23 82.2283 85.1426 78.6483 85.1426ZM64.4216 85.1079C64.419 85.109 64.3995 85.1183 64.3969 85.1194C63.7029 85.4492 63.4078 86.2793 63.7378 86.9733C64.0715 87.6754 64.9109 87.9572 65.5917 87.6324L65.6006 87.6283C66.2966 87.3028 66.5969 86.4747 66.2714 85.7787C65.9458 85.0827 65.1178 84.7823 64.4216 85.1079ZM59.377 87.1093L59.347 87.1191C58.6191 87.3617 58.2275 88.147 58.4686 88.8753C58.7124 89.6119 59.5134 89.9946 60.2261 89.7592L60.2324 89.7571C60.9634 89.521 61.3647 88.7367 61.1285 88.0056C60.8924 87.2746 60.1083 86.8728 59.377 87.1093ZM29.6948 58.2399C29.1771 60.5428 30.2806 62.9615 32.3788 64.122C34.4897 65.2892 36.743 66.18 39.0762 66.7699C39.1907 66.7988 39.3053 66.8125 39.4181 66.8125C40.0401 66.8125 40.6066 66.3924 40.766 65.7619C40.9542 65.0169 40.5031 64.2604 39.7579 64.0721C37.6566 63.541 35.6268 62.7385 33.7252 61.6871C32.7022 61.1213 32.1611 59.9547 32.4095 58.8501C33.0914 55.8125 34.8063 53.0552 37.2394 51.0851C38.4418 50.1096 39.7795 49.3522 41.2229 48.8274C42.6299 49.6415 44.2606 50.1103 45.9997 50.1103C47.7392 50.1103 49.3701 49.6415 50.7771 48.8272C55.2029 50.4438 58.5528 54.2314 59.59 58.8488C59.8382 59.953 59.2967 61.1206 58.2744 61.6873C54.538 63.7532 50.2928 64.8451 45.9977 64.8451C45.2293 64.8451 44.6064 65.468 44.6064 66.2364C44.6064 67.0047 45.2293 67.6276 45.9977 67.6276C50.7625 67.6276 55.4733 66.4156 59.6221 64.1217C61.719 62.9591 62.8222 60.5398 62.3048 58.2388C61.1779 53.2223 57.7759 49.0218 53.2015 46.8321C54.674 45.1485 55.5694 42.9479 55.5694 40.5406V30.5621C55.5694 27.1513 52.7945 24.3761 49.3836 24.3761H42.6156C39.2048 24.3761 36.4298 27.1511 36.4298 30.5621V36.6794V36.6881V40.5406C36.4298 42.947 37.3245 45.147 38.7963 46.8304C37.6193 47.3923 36.5118 48.0924 35.4871 48.9238C32.5707 51.2853 30.5133 54.5943 29.6948 58.2399ZM39.2127 30.5619C39.2127 28.6854 40.7394 27.1585 42.616 27.1585H49.384C51.2606 27.1585 52.7872 28.6852 52.7872 30.5619V34.0623C50.2416 32.4856 47.1778 32.1151 44.3167 33.0576L39.2126 34.739V30.5619H39.2127ZM39.2127 37.6687L45.1874 35.7005C47.3505 34.9878 49.6751 35.3082 51.5648 36.5802L52.7872 37.4029V40.5404C52.7872 44.2829 49.7424 47.3276 46.0001 47.3276C42.2576 47.3276 39.2127 44.2828 39.2127 40.5404V37.6687ZM91.9992 45.959C91.9996 45.946 91.9998 45.933 91.9998 45.92V45.9013C91.9998 45.1329 91.3769 44.51 90.6085 44.51C89.8402 44.51 89.2173 45.1329 89.2173 45.9013V45.92C89.2173 45.9343 89.2175 45.9484 89.2178 45.9625C89.2175 45.9755 89.2173 45.9884 89.2173 46.0014V46.0202C89.1991 47.7867 92.0169 47.8112 91.9998 46.0202V46.0014C92 45.9873 91.9998 45.973 91.9992 45.959ZM1.39127 47.4432C2.15962 47.4432 2.78253 46.8202 2.78253 46.0519V46.0332C2.78253 45.2648 2.15962 44.6419 1.39127 44.6419C0.622916 44.6419 0 45.2648 0 46.0332C0 46.8076 0.617166 47.4432 1.39127 47.4432ZM90.429 50.2146C89.6679 50.1218 88.9754 50.6674 88.8802 51.4277C88.8798 51.4311 88.8784 51.4435 88.8778 51.447C88.7676 52.2621 89.4308 52.9963 90.2607 52.9963C90.953 52.9963 91.5533 52.4769 91.6412 51.773C91.6416 51.7696 91.6431 51.757 91.6436 51.7537C91.7332 50.9924 91.1897 50.3068 90.429 50.2146ZM54.1197 88.4577C53.363 88.5913 52.8577 89.3129 52.9913 90.0695C53.1256 90.8306 53.8607 91.3313 54.6031 91.1979L54.6447 91.1901C55.3989 91.0438 55.8942 90.3131 55.7479 89.559C55.6017 88.8046 54.8747 88.3111 54.1197 88.4577ZM89.5658 55.7462C88.8218 55.5544 88.0631 56.0022 87.8716 56.7465L87.8657 56.7693C87.6385 57.6306 88.3152 58.5032 89.2152 58.5032C89.8367 58.5032 90.403 58.0836 90.5627 57.4538L90.5662 57.4406C90.7577 56.6964 90.3099 55.9379 89.5658 55.7462ZM87.9948 61.128C87.2791 60.8481 86.4724 61.2019 86.1927 61.9177C85.8402 62.8194 86.5093 63.833 87.4812 63.833C88.0304 63.833 88.5511 63.5054 88.7706 62.965L88.7845 62.9302C89.064 62.2145 88.7105 61.4076 87.9948 61.128ZM48.7414 89.1337L48.704 89.1361C47.9404 89.1914 47.3698 89.853 47.421 90.6167C47.4726 91.3838 48.1432 91.9607 48.9002 91.9116L48.9047 91.9114C49.6717 91.8663 50.257 91.2079 50.2117 90.4409C50.1668 89.6737 49.5081 89.0871 48.7414 89.1337ZM5.03471 63.7633C5.75038 63.4837 6.10395 62.677 5.8244 61.9611L5.8077 61.9192C5.51461 61.2089 4.69914 60.8653 3.98885 61.1588C3.27857 61.4519 2.93835 62.2601 3.23145 62.9704L3.23256 62.9736C3.51471 63.6983 4.33407 64.0369 5.03471 63.7633ZM27.6088 85.1224C26.9147 84.7918 26.0849 85.0866 25.7546 85.7803C25.4242 86.4741 25.7188 87.3042 26.4125 87.6346C27.1006 87.9622 27.9494 87.6888 28.2837 86.9739C28.6093 86.2779 28.3048 85.4479 27.6088 85.1224ZM1.927 53.021C2.68867 52.9203 3.22458 52.2217 3.12386 51.4598C3.03407 50.6969 2.34382 50.1524 1.57955 50.2407C0.816395 50.3305 0.270648 51.0219 0.360431 51.785C0.452069 52.5656 1.1644 53.1219 1.927 53.021ZM4.13744 56.7819C3.9486 56.0373 3.19249 55.5869 2.44677 55.7755C1.70198 55.9646 1.2514 56.7214 1.44042 57.4662C1.63298 58.2253 2.40429 58.672 3.13888 58.4828C3.88312 58.2913 4.32906 57.5261 4.13744 56.7819ZM43.3044 89.1364C42.5366 89.081 41.8717 89.6572 41.8163 90.4235C41.7601 91.1994 42.3598 91.8683 43.1408 91.9142C43.1686 91.9158 43.1962 91.9166 43.2237 91.9166C43.9547 91.9166 44.568 91.3463 44.6114 90.6069C44.6565 89.8399 44.0716 89.1815 43.3044 89.1364ZM32.6669 87.1237C31.939 86.877 31.1495 87.2677 30.9032 87.9956C30.6032 88.8818 31.2951 89.8391 32.2401 89.8391C32.8304 89.8391 33.3794 89.462 33.5677 88.8702C33.8007 88.1381 33.3991 87.3567 32.6669 87.1237ZM37.9302 88.4672L37.8886 88.4594C37.132 88.3256 36.4061 88.8302 36.2725 89.5868C36.139 90.3435 36.6398 91.0644 37.3967 91.1979C37.4874 91.2139 37.5779 91.2245 37.6668 91.2245C38.3196 91.2245 38.902 90.7627 39.031 90.0979C39.1773 89.3437 38.6844 88.6135 37.9302 88.4672Z" fill="white"/>
</svg>
