<svg width="84" height="92" viewBox="0 0 84 92" fill="none" xmlns="http://www.w3.org/2000/svg">
<path d="M82.3147 88.899H79.7304V7.7528C79.7304 6.89623 79.0361 6.20227 78.1799 6.20227H49.236C48.3796 6.20227 47.6855 6.89623 47.6855 7.7528V14.4719H44.5845V7.7528C44.5845 6.89623 43.8901 6.20227 43.0339 6.20227H36.3147V1.55052C36.3147 0.693953 35.6204 0 34.7642 0C33.908 0 33.2136 0.693953 33.2136 1.55052V6.20227H26.4946C25.6382 6.20227 24.9441 6.89623 24.9441 7.7528V14.4719H20.2923C19.4359 14.4719 18.7418 15.1658 18.7418 16.0224V28.9437H5.82046C4.96407 28.9437 4.26994 29.6377 4.26994 30.4942V88.8988H1.68531C0.828921 88.8988 0.134789 89.5927 0.134789 90.4493C0.134789 91.3059 0.829101 92 1.68531 92H82.3147C83.1711 92 83.8652 91.306 83.8652 90.4495C83.8652 89.5929 83.1709 88.899 82.3147 88.899ZM28.0449 9.30332H41.483V14.4719H28.0449V9.30332ZM22.8764 88.899H21.8427V86.3147C21.8427 85.4581 21.1483 84.7642 20.2921 84.7642C19.4359 84.7642 18.7416 85.4581 18.7416 86.3147V88.899H17.7079V83.7304H22.8764V88.899ZM33.2135 49.101V51.7685V88.899H25.9774V82.1799C25.9774 81.3233 25.2831 80.6294 24.4269 80.6294H16.1573C15.301 80.6294 14.6068 81.3233 14.6068 82.1799V88.899H7.37081V32.0449H33.2135V49.101ZM34.764 28.9439H21.8427V17.5731H47.6853V47.5505H36.3147V42.382H40.9664C41.8228 42.382 42.517 41.688 42.517 40.8315C42.517 39.9749 41.8227 39.2809 40.9664 39.2809H36.3147V34.1124H40.9664C41.8228 34.1124 42.517 33.4185 42.517 32.5619C42.517 31.7053 41.8227 31.0114 40.9664 31.0114H36.3147V30.4946C36.3147 29.6378 35.6204 28.9439 34.764 28.9439ZM62.1574 88.899H36.3147V51.7685V50.6517H62.1574V88.899ZM76.6292 88.899H65.2584V49.101V47.0336C65.2584 46.177 64.5641 45.483 63.7079 45.483C62.8517 45.483 62.1574 46.177 62.1574 47.0336V47.5503H59.0563V47.0336C59.0563 46.177 58.362 45.483 57.5058 45.483C56.6496 45.483 55.9553 46.177 55.9553 47.0336V47.5503H50.7867V16.0226V9.30332H76.6294V88.899H76.6292Z" fill="white"/>
</svg>
