<svg width="92" height="92" viewBox="0 0 92 92" fill="none" xmlns="http://www.w3.org/2000/svg">
<path d="M82.4077 9.75305H74.7385C73.9942 9.75305 73.3908 10.3563 73.3908 11.1007C73.3908 11.8452 73.9942 12.4484 74.7385 12.4484H82.4077C86.2108 12.4484 89.3047 15.5503 89.3047 19.3629V70.8328C89.3047 74.6456 86.2106 77.7473 82.4077 77.7473H9.59226C5.78917 77.7477 2.69531 74.6457 2.69531 70.833V61.2924C2.69531 60.548 2.09192 59.9448 1.34766 59.9448C0.603391 59.9448 0 60.548 0 61.2924V70.833C0 76.1319 4.30298 80.4428 9.59226 80.4428H36.952L34.2384 89.3046H28.2616C27.5173 89.3046 26.914 89.9079 26.914 90.6523C26.914 91.3967 27.5173 92 28.2616 92H63.738C64.4823 92 65.0857 91.3967 65.0857 90.6523C65.0857 89.9079 64.4823 89.3046 63.738 89.3046H57.7613L55.0478 80.443H82.4074C87.6967 80.443 91.9996 76.1321 91.9996 70.8331V19.3631C92 14.0641 87.6968 9.75305 82.4077 9.75305ZM37.0573 89.3046L39.771 80.443H52.2292L54.9427 89.3046H37.0573Z" fill="white"/>
<path d="M1.34766 56.3718C2.09192 56.3718 2.69531 55.7686 2.69531 55.0241V19.3632C2.69531 15.5504 5.78917 12.4486 9.59226 12.4486H13.5057C14.2499 12.4486 14.8533 11.8454 14.8533 11.101C14.8533 10.3565 14.2499 9.7533 13.5057 9.7533H9.59226C4.30298 9.75312 0 14.0642 0 19.3632V55.0241C0 55.7684 0.603391 56.3718 1.34766 56.3718Z" fill="white"/>
<path d="M86.6231 19.1395C86.6231 16.7865 84.7115 14.8723 82.362 14.8723H77.5656C76.8213 14.8723 76.2179 15.4755 76.2179 16.22C76.2179 16.9644 76.8213 17.5676 77.5656 17.5676H82.362C83.2254 17.5676 83.9277 18.2729 83.9277 19.1395V45.5649C83.9277 46.3094 84.5311 46.9126 85.2754 46.9126C86.0197 46.9126 86.6231 46.3094 86.6231 45.5649V19.1395Z" fill="white"/>
<path d="M86.623 65.4885V51.9095C86.623 51.1651 86.0196 50.5618 85.2753 50.5618C84.5311 50.5618 83.9277 51.1651 83.9277 51.9095V65.4885C83.9277 66.3553 83.2253 67.0606 82.3619 67.0606H9.63806C8.77466 67.0606 8.07227 66.3553 8.07227 65.4885V19.1395C8.07227 18.2729 8.77466 17.5676 9.63806 17.5676H12.1761C12.9204 17.5676 13.5238 16.9644 13.5238 16.22C13.5238 15.4755 12.9204 14.8723 12.1761 14.8723H9.63806C7.28847 14.8723 5.37695 16.7865 5.37695 19.1395V65.4885C5.37695 67.8417 7.28847 69.7559 9.63806 69.7559H82.3619C84.7115 69.7559 86.623 67.8417 86.623 65.4885Z" fill="white"/>
<path d="M11.5099 72.4098C10.7656 72.4098 10.1622 73.013 10.1622 73.7574C10.1622 74.5019 10.7656 75.1051 11.5099 75.1051H17.0153C17.7596 75.1051 18.363 74.5019 18.363 73.7574C18.363 73.013 17.7596 72.4098 17.0153 72.4098H11.5099Z" fill="white"/>
<path d="M22.2911 72.4098C21.5469 72.4098 20.9435 73.013 20.9435 73.7574C20.9435 74.5019 21.5469 75.1051 22.2911 75.1051H27.7966C28.5408 75.1051 29.1442 74.5019 29.1442 73.7574C29.1442 73.013 28.5408 72.4098 27.7966 72.4098H22.2911Z" fill="white"/>
<path d="M46.0776 61.7846C51.5522 61.7846 56.9317 60.3358 61.6348 57.5947C66.1978 54.9353 70.0298 51.1274 72.7167 46.5827C73.0954 45.942 72.8831 45.1156 72.2425 44.7368C71.6015 44.3582 70.7753 44.5704 70.3965 45.211C68.752 47.9926 66.6377 50.4719 64.1675 52.5358C63.0594 52.0371 61.909 51.5879 60.7222 51.1896C63.5973 45.9114 65.2471 39.2831 65.4339 32.2404H74.269C74.1448 34.8811 73.6554 37.4728 72.8092 39.963C72.5697 40.6678 72.9468 41.4332 73.6516 41.6728C73.7953 41.7215 73.9414 41.7446 74.0853 41.7446C74.6465 41.7446 75.1705 41.3912 75.3611 40.8302C76.4461 37.6379 76.9961 34.2944 76.9961 30.8928C76.9959 13.8582 63.126 0 46.0776 0C41.1485 0 36.4369 1.12484 32.0735 3.34327C28.2363 5.29431 24.7983 8.07444 22.0728 11.4215C21.6473 11.2874 21.1947 11.2152 20.7254 11.2152C18.2475 11.2152 16.2317 13.2299 16.2317 15.7061C16.2317 16.9566 16.7458 18.0891 17.5736 18.9042C15.971 22.6979 15.1592 26.7255 15.1592 30.8922C15.1592 47.9264 29.0291 61.7846 46.0776 61.7846ZM17.8865 32.2401H26.7213C26.9082 39.2827 28.5579 45.9111 31.4331 51.1892C30.2506 51.5861 29.1044 52.0335 28 52.53C22.1253 47.6228 18.2715 40.3772 17.8865 32.2401ZM30.5034 54.3973C31.2719 54.0926 32.0602 53.8119 32.8663 53.5559C33.7829 54.9181 34.7701 56.1222 35.8153 57.16C33.939 56.4258 32.1601 55.4967 30.5034 54.3973ZM44.73 58.9968C41.3995 58.5386 38.2438 56.3881 35.6216 52.7924C38.5018 52.1058 41.5641 51.7107 44.73 51.6233V58.9968ZM44.73 48.9271C41.0166 49.0243 37.4289 49.5233 34.0794 50.4007C31.2426 45.4369 29.608 39.0632 29.4177 32.2401H44.7302V35.935C42.9087 36.5084 41.584 38.2123 41.584 40.2196C41.584 42.2267 42.9087 43.9307 44.7302 44.5041V48.9271H44.73ZM47.4253 58.9968V51.6233C50.5912 51.7107 53.6534 52.1058 56.5337 52.7924C53.9113 56.3881 50.7558 58.5386 47.4253 58.9968ZM61.6646 54.4024C61.2111 54.7033 60.7486 54.9914 60.2774 55.2659C59.0115 56.0037 57.6919 56.6389 56.332 57.1678C57.3802 56.1281 58.3701 54.9213 59.2888 53.5557C60.0994 53.8134 60.892 54.0958 61.6646 54.4024ZM63.1869 23.1287C62.1952 23.1287 61.3886 22.3231 61.3886 21.333C61.3886 20.343 62.1954 19.5374 63.1869 19.5374C64.1786 19.5374 64.9854 20.343 64.9854 21.333C64.9854 22.3231 64.1786 23.1287 63.1869 23.1287ZM74.2686 29.5448H65.4336C65.396 28.1427 65.2999 26.7472 65.1463 25.3742C66.6452 24.6454 67.6807 23.1078 67.6807 21.333C67.6807 18.9135 65.7565 16.9348 63.3569 16.8453C62.6393 14.5881 61.7536 12.4908 60.7227 10.5955C61.9051 10.1985 63.0511 9.75128 64.1553 9.25498C70.0298 14.1619 73.8836 21.4074 74.2686 29.5448ZM61.6517 7.38731C60.8832 7.69206 60.0951 7.97255 59.289 8.22879C58.5273 7.09909 57.7063 6.06535 56.8327 5.1396C56.6645 4.96135 56.4947 4.78759 56.3234 4.61815C58.2058 5.35325 59.9903 6.28475 61.6517 7.38731ZM47.4253 2.79019C50.7743 3.26205 53.9445 5.47544 56.5259 8.99408C53.6479 9.67959 50.5883 10.074 47.4253 10.1613V2.79019ZM47.4253 12.8575C51.1378 12.7603 54.7246 12.2615 58.0734 11.3846C59.1168 13.2094 60.0234 15.2803 60.7551 17.558C59.5154 18.3583 58.6933 19.7514 58.6933 21.3329C58.6933 23.5682 60.336 25.4272 62.4783 25.7679C62.6148 27.0117 62.7014 28.2747 62.7374 29.5446H47.4253V12.8575ZM47.4253 32.2401H62.7375C62.5471 39.063 60.9126 45.4367 58.0759 50.4007C54.7264 49.5235 51.1387 49.0243 47.4253 48.9271V44.5041C49.2468 43.9307 50.5713 42.2267 50.5713 40.2196C50.5713 38.2123 49.2466 36.5085 47.4253 35.935V32.2401ZM46.0776 38.424C47.0693 38.424 47.876 39.2296 47.876 40.2196C47.876 41.2097 47.0692 42.0151 46.0776 42.0151C45.0859 42.0151 44.2792 41.2097 44.2792 40.2196C44.2792 39.2296 45.0859 38.424 46.0776 38.424ZM44.73 2.78839V10.1613C41.5592 10.0738 38.4927 9.67761 35.6087 8.98923C38.184 5.46394 41.3526 3.25558 44.73 2.78839ZM33.295 5.74605C34.139 5.31695 34.9972 4.93278 35.8689 4.59353C34.7979 5.6456 33.7931 6.86298 32.8694 8.22987C32.0584 7.97237 31.2655 7.68991 30.4926 7.38318C31.3952 6.78338 32.3312 6.23605 33.295 5.74605ZM20.7252 13.9105C21.7169 13.9105 22.5237 14.716 22.5237 15.7061C22.5237 16.6962 21.7169 17.5017 20.7252 17.5017C19.7335 17.5017 18.9269 16.6962 18.9269 15.7061C18.9269 14.716 19.7337 13.9105 20.7252 13.9105ZM19.9802 20.1354C20.2226 20.176 20.4715 20.1972 20.7252 20.1972C23.2031 20.1972 25.219 18.1826 25.219 15.7063C25.219 14.678 24.8713 13.7294 24.2873 12.9715C25.4026 11.6211 26.6453 10.3739 27.9903 9.25067C29.0977 9.74895 30.2474 10.1976 31.4333 10.5958C30.1194 13.0076 29.0294 15.771 28.2234 18.8226C28.0332 19.5423 28.4627 20.2795 29.1822 20.4696C29.2975 20.5002 29.4132 20.5147 29.5272 20.5147C30.1241 20.5147 30.6696 20.1151 30.8294 19.5108C31.6378 16.4495 32.7416 13.7129 34.0677 11.3812C37.4207 12.2604 41.0121 12.7605 44.7296 12.8577V29.5449H29.4176C29.4573 28.1448 29.5584 26.7519 29.7198 25.388C29.8073 24.649 29.2792 23.9788 28.54 23.8913C27.8025 23.8057 27.1309 24.3322 27.0432 25.0711C26.8692 26.5391 26.7614 28.0388 26.7212 29.5448H17.8856C18.0371 26.2863 18.7395 23.1314 19.9802 20.1354Z" fill="white"/>
<path d="M19.6077 53.6705H13.8323C13.0881 53.6705 12.4847 54.2737 12.4847 55.0182C12.4847 55.7626 13.0881 56.3658 13.8323 56.3658H19.6077C20.3519 56.3658 20.9553 55.7626 20.9553 55.0182C20.9553 54.2737 20.3519 53.6705 19.6077 53.6705Z" fill="white"/>
<path d="M12.4847 61.3073C12.4847 62.0517 13.0881 62.6549 13.8323 62.6549H23.1959C23.9401 62.6549 24.5435 62.0517 24.5435 61.3073C24.5435 60.5628 23.9401 59.9596 23.1959 59.9596H13.8323C13.0881 59.9596 12.4847 60.5628 12.4847 61.3073Z" fill="white"/>
</svg>
