<svg width="92" height="92" viewBox="0 0 92 92" fill="none" xmlns="http://www.w3.org/2000/svg">
<path d="M14.642 16.1539H20.5264C21.2707 16.1539 21.8741 15.5505 21.8741 14.8063C21.8741 14.062 21.2707 13.4586 20.5264 13.4586H14.642C13.8978 13.4586 13.2944 14.062 13.2944 14.8063C13.2944 15.5505 13.8978 16.1539 14.642 16.1539Z" fill="white"/>
<path d="M14.642 23.3315H20.5264C21.2707 23.3315 21.8741 22.7282 21.8741 21.9839C21.8741 21.2396 21.2707 20.6362 20.5264 20.6362H14.642C13.8978 20.6362 13.2944 21.2396 13.2944 21.9839C13.2944 22.7282 13.8978 23.3315 14.642 23.3315Z" fill="white"/>
<path d="M43.0578 16.1539H48.942C49.6863 16.1539 50.2897 15.5505 50.2897 14.8063C50.2897 14.062 49.6863 13.4586 48.942 13.4586H43.0578C42.3135 13.4586 41.7101 14.062 41.7101 14.8063C41.7101 15.5505 42.3135 16.1539 43.0578 16.1539Z" fill="white"/>
<path d="M43.0578 23.3315H48.942C49.6863 23.3315 50.2897 22.7282 50.2897 21.9839C50.2897 21.2396 49.6863 20.6362 48.942 20.6362H43.0578C42.3135 20.6362 41.7101 21.2396 41.7101 21.9839C41.7101 22.7282 42.3135 23.3315 43.0578 23.3315Z" fill="white"/>
<path d="M71.4736 16.1539H77.3578C78.1021 16.1539 78.7055 15.5505 78.7055 14.8063C78.7055 14.062 78.1021 13.4586 77.3578 13.4586H71.4736C70.7293 13.4586 70.1259 14.062 70.1259 14.8063C70.1259 15.5505 70.7293 16.1539 71.4736 16.1539Z" fill="white"/>
<path d="M71.4736 23.3315H77.3578C78.1021 23.3315 78.7055 22.7282 78.7055 21.9839C78.7055 21.2396 78.1021 20.6362 77.3578 20.6362H71.4736C70.7293 20.6362 70.1259 21.2396 70.1259 21.9839C70.1259 22.7282 70.7293 23.3315 71.4736 23.3315Z" fill="white"/>
<path d="M39.9974 45.9037H52.0028C53.8587 45.9037 55.3684 44.3939 55.3684 42.5383V9.41957C55.3684 7.56375 53.8587 6.0542 52.0028 6.0542H39.9974C38.1416 6.0542 36.6318 7.56393 36.6318 9.41957V42.5383C36.6318 44.3939 38.1416 45.9037 39.9974 45.9037ZM39.3271 9.41957C39.3271 9.04995 39.6278 8.74951 39.9974 8.74951H52.0028C52.3725 8.74951 52.6731 9.05013 52.6731 9.41957V42.5383C52.6731 42.9079 52.3725 43.2084 52.0028 43.2084H39.9974C39.6278 43.2084 39.3271 42.9077 39.3271 42.5383V9.41957Z" fill="white"/>
<path d="M84.0903 0H64.7411C62.9187 0 61.2875 0.833211 60.2079 2.13864C59.1283 0.833211 57.497 0 55.6747 0H36.3253C34.5029 0 32.8717 0.833211 31.7921 2.13864C30.7126 0.833211 29.0814 0 27.259 0H7.90968C4.66686 0 2.02887 2.63817 2.02887 5.88081V86.1192C2.02887 89.3618 4.66704 92 7.90968 92H27.2591C29.0815 92 30.7127 91.1668 31.7923 89.8614C32.8719 91.1668 34.5031 92 36.3255 92H55.6749C57.4973 92 59.1285 91.1668 60.2081 89.8614C61.2876 91.1668 62.9188 92 64.7412 92H84.0907C87.3333 92 89.9715 89.3618 89.9715 86.1192V5.88081C89.9711 2.63817 87.3332 0 84.0903 0V0ZM27.259 89.3047H7.90968C6.15324 89.3047 4.72418 87.8756 4.72418 86.1192V5.88081C4.72418 4.12437 6.15306 2.69531 7.90968 2.69531H27.2591C29.0156 2.69531 30.4446 4.12437 30.4446 5.88081V86.1192C30.4445 87.8756 29.0156 89.3047 27.259 89.3047ZM55.6747 89.3047H36.3253C34.5688 89.3047 33.1398 87.8756 33.1398 86.1192V5.88081C33.1398 4.12437 34.5688 2.69531 36.3253 2.69531H55.6747C57.4312 2.69531 58.8602 4.12437 58.8602 5.88081V86.1192C58.8602 87.8756 57.4312 89.3047 55.6747 89.3047ZM87.2758 86.1192C87.2758 87.8756 85.8468 89.3047 84.0903 89.3047H64.7411C62.9846 89.3047 61.5555 87.8756 61.5555 86.1192V5.88081C61.5555 4.12437 62.9846 2.69531 64.7411 2.69531H84.0905C85.847 2.69531 87.276 4.12437 87.276 5.88081V86.1192H87.2758Z" fill="white"/>
<path d="M68.413 45.9037H80.4184C82.2743 45.9037 83.7838 44.3939 83.7838 42.5383V9.41957C83.7838 7.56375 82.2741 6.0542 80.4184 6.0542H68.413C66.5572 6.0542 65.0476 7.56393 65.0476 9.41957V32.2212C65.0476 32.9655 65.651 33.5689 66.3953 33.5689C67.1395 33.5689 67.7429 32.9655 67.7429 32.2212V9.41957C67.7429 9.04995 68.0435 8.74951 68.413 8.74951H80.4184C80.7881 8.74951 81.0885 9.05013 81.0885 9.41957V42.5383C81.0885 42.9079 80.7879 43.2084 80.4184 43.2084H68.413C68.0434 43.2084 67.7429 42.9077 67.7429 42.5383V38.5212C67.7429 37.777 67.1395 37.1736 66.3953 37.1736C65.651 37.1736 65.0476 37.777 65.0476 38.5212V42.5383C65.0476 44.3939 66.5573 45.9037 68.413 45.9037Z" fill="white"/>
<path d="M11.5816 45.9037H23.587C25.4428 45.9037 26.9524 44.3939 26.9524 42.5383V9.41957C26.9524 7.56375 25.4426 6.0542 23.587 6.0542H11.5816C9.72574 6.0542 8.21619 7.56393 8.21619 9.41957V12.8428C8.21619 13.5871 8.81958 14.1905 9.56384 14.1905C10.3081 14.1905 10.9115 13.5871 10.9115 12.8428V9.41957C10.9115 9.04995 11.2121 8.74951 11.5816 8.74951H23.587C23.9566 8.74951 24.2571 9.05013 24.2571 9.41957V42.5383C24.2571 42.9079 23.9565 43.2084 23.587 43.2084H11.5816C11.2119 43.2084 10.9115 42.9077 10.9115 42.5383V19.2053C10.9115 18.4611 10.3081 17.8577 9.56384 17.8577C8.81958 17.8577 8.21619 18.4611 8.21619 19.2053V42.5383C8.21601 44.3939 9.72574 45.9037 11.5816 45.9037Z" fill="white"/>
<path d="M17.5842 63.6143C11.8085 63.6143 7.10968 68.3131 7.10968 74.0888C7.10968 79.8645 11.8085 84.5633 17.5842 84.5633C23.3599 84.5633 28.0587 79.8645 28.0587 74.0888C28.0587 68.3131 23.3599 63.6143 17.5842 63.6143ZM17.5842 81.868C13.2947 81.868 9.80499 78.3783 9.80499 74.0888C9.80499 69.7993 13.2947 66.3096 17.5842 66.3096C21.8737 66.3096 25.3634 69.7993 25.3634 74.0888C25.3634 78.3783 21.8737 81.868 17.5842 81.868Z" fill="white"/>
<path d="M17.5842 68.5927C14.5536 68.5927 12.0881 71.0581 12.0881 74.0888C12.0881 77.1194 14.5536 79.5849 17.5842 79.5849C20.6148 79.5849 23.0803 77.1192 23.0803 74.0888C23.0803 71.0583 20.6148 68.5927 17.5842 68.5927ZM17.5842 76.8897C16.0398 76.8897 14.7834 75.6332 14.7834 74.0889C14.7834 72.5447 16.0398 71.2881 17.5842 71.2881C19.1287 71.2881 20.385 72.5445 20.385 74.0889C20.385 75.6333 19.1287 76.8897 17.5842 76.8897Z" fill="white"/>
<path d="M46 63.6143C40.2243 63.6143 35.5255 68.3131 35.5255 74.0888C35.5255 79.8645 40.2243 84.5633 46 84.5633C51.7757 84.5633 56.4745 79.8645 56.4745 74.0888C56.4745 68.3131 51.7757 63.6143 46 63.6143ZM46 81.868C41.7105 81.868 38.2208 78.3783 38.2208 74.0888C38.2208 69.7993 41.7105 66.3096 46 66.3096C50.2895 66.3096 53.7792 69.7993 53.7792 74.0888C53.7792 78.3783 50.2895 81.868 46 81.868Z" fill="white"/>
<path d="M46 68.5927C42.9694 68.5927 40.5039 71.0581 40.5039 74.0888C40.5039 77.1194 42.9694 79.5849 46 79.5849C49.0306 79.5849 51.4961 77.1192 51.4961 74.0888C51.4961 71.0583 49.0306 68.5927 46 68.5927ZM46 76.8897C44.4556 76.8897 43.1992 75.6332 43.1992 74.0889C43.1992 72.5447 44.4556 71.2881 46 71.2881C47.5444 71.2881 48.8008 72.5445 48.8008 74.0889C48.8008 75.6333 47.5444 76.8897 46 76.8897Z" fill="white"/>
<path d="M74.4158 63.6143C68.6401 63.6143 63.9413 68.3131 63.9413 74.0888C63.9413 79.8645 68.6401 84.5633 74.4158 84.5633C80.1915 84.5633 84.8903 79.8645 84.8903 74.0888C84.8903 68.3131 80.1915 63.6143 74.4158 63.6143ZM74.4158 81.868C70.1263 81.868 66.6366 78.3783 66.6366 74.0888C66.6366 69.7993 70.1263 66.3096 74.4158 66.3096C78.7053 66.3096 82.195 69.7993 82.195 74.0888C82.195 78.3783 78.7051 81.868 74.4158 81.868Z" fill="white"/>
<path d="M74.4158 68.5927C71.3852 68.5927 68.9197 71.0581 68.9197 74.0888C68.9197 77.1194 71.3852 79.5849 74.4158 79.5849C77.4464 79.5849 79.9119 77.1192 79.9119 74.0888C79.9119 71.0583 77.4462 68.5927 74.4158 68.5927ZM74.4158 76.8897C72.8714 76.8897 71.615 75.6332 71.615 74.0889C71.615 72.5447 72.8714 71.2881 74.4158 71.2881C75.9602 71.2881 77.2166 72.5445 77.2166 74.0889C77.2166 75.6333 75.96 76.8897 74.4158 76.8897Z" fill="white"/>
</svg>
